<svg width="297" height="212" viewBox="0 0 297 212" fill="none" xmlns="http://www.w3.org/2000/svg">
<path d="M296.945 185.859H0.0654297V186.001H296.945V185.859Z" fill="#EBEBEB"/>
<path d="M267.197 194.964H254.324V195.106H267.197V194.964Z" fill="#EBEBEB"/>
<path d="M204.716 192.033H184.463V192.175H204.716V192.033Z" fill="#EBEBEB"/>
<path d="M261.985 189.713H235.545V189.854H261.985V189.713Z" fill="#EBEBEB"/>
<path d="M102.798 192.565H96.1836V192.706H102.798V192.565Z" fill="#EBEBEB"/>
<path d="M90.8931 192.565H68.0986V192.706H90.8931V192.565Z" fill="#EBEBEB"/>
<path d="M55.8846 190.177H39.4375V190.318H55.8846V190.177Z" fill="#EBEBEB"/>
<path d="M140.786 160.62H26.1374C25.2392 160.619 24.3784 160.278 23.7438 159.672C23.1093 159.066 22.7529 158.245 22.7529 157.389V3.78841C22.7607 2.93732 23.1206 2.12354 23.7543 1.52382C24.388 0.924113 25.2443 0.586907 26.1374 0.585449H140.786C141.686 0.585449 142.548 0.925884 143.184 1.53186C143.82 2.13784 144.177 2.95972 144.177 3.8167V157.389C144.177 158.246 143.82 159.068 143.184 159.674C142.548 160.28 141.686 160.62 140.786 160.62V160.62ZM26.1374 0.698628C25.2786 0.700127 24.4555 1.02632 23.8488 1.6056C23.2421 2.18488 22.9014 2.96993 22.9014 3.78841V157.389C22.9014 158.207 23.2421 158.992 23.8488 159.572C24.4555 160.151 25.2786 160.477 26.1374 160.479H140.786C141.646 160.477 142.469 160.151 143.077 159.572C143.685 158.993 144.027 158.208 144.028 157.389V3.78841C144.027 2.96941 143.685 2.18438 143.077 1.60526C142.469 1.02613 141.646 0.700124 140.786 0.698628H26.1374Z" fill="#EBEBEB"/>
<path d="M269.222 160.62H154.567C153.668 160.619 152.807 160.278 152.172 159.672C151.536 159.067 151.178 158.245 151.177 157.389V3.78841C151.186 2.9368 151.547 2.12303 152.182 1.52347C152.817 0.923915 153.674 0.586891 154.567 0.585449H269.222C270.114 0.588394 270.969 0.926258 271.601 1.52581C272.234 2.12536 272.593 2.9383 272.601 3.78841V157.389C272.601 158.244 272.245 159.064 271.612 159.67C270.978 160.275 270.119 160.617 269.222 160.62V160.62ZM154.567 0.698628C153.708 0.700124 152.884 1.02613 152.276 1.60526C151.669 2.18438 151.327 2.96941 151.325 3.78841V157.389C151.327 158.208 151.669 158.993 152.276 159.572C152.884 160.151 153.708 160.477 154.567 160.479H269.222C270.081 160.477 270.905 160.151 271.513 159.572C272.12 158.993 272.462 158.208 272.464 157.389V3.78841C272.462 2.96941 272.12 2.18438 271.513 1.60526C270.905 1.02613 270.081 0.700124 269.222 0.698628H154.567Z" fill="#EBEBEB"/>
<path d="M128.358 83.1381L128.625 75.7023L123.84 74.2083C123.634 71.6884 123.205 69.1895 122.557 66.7385L126.619 63.909L123.863 56.9259L118.84 57.3107C117.649 55.0608 116.259 52.912 114.684 50.8878L117.285 46.7511L111.941 41.3129L107.452 43.5029C105.433 41.8585 103.277 40.3746 101.004 39.0663L101.728 34.3128L94.603 31.2343L91.3373 34.8787C88.818 34.1106 86.2362 33.5428 83.6185 33.181L82.4309 28.5237L74.6052 28.269L73.0614 32.8358C70.42 33.0337 67.8004 33.4407 65.2297 34.0525L62.2134 30.2044L54.8865 32.8132L55.2902 37.6006C52.9308 38.753 50.6765 40.0913 48.551 41.6015L44.181 39.0663L38.4512 44.1593L40.749 48.4601C39.0232 50.3743 37.4737 52.4266 36.1177 54.5944L31.1361 53.8814L27.8823 60.6721L31.7298 63.7789C30.9182 66.1785 30.3223 68.6396 29.9486 71.1355L25.0025 72.3182L24.7354 79.7541L29.5448 81.248C29.7437 83.7665 30.1709 86.2638 30.8214 88.7122L26.7601 91.5416L29.5211 98.5304L34.5443 98.1456C35.7322 100.397 37.1229 102.546 38.7006 104.569L36.094 108.705L41.4378 114.143L45.9266 111.953C47.9398 113.597 50.0927 115.08 52.363 116.384L51.6148 121.132L58.7399 124.216L62.0234 120.572C64.5427 121.347 67.1243 121.924 69.7423 122.298L70.9298 126.955L78.7556 127.21L80.2993 122.643C82.9424 122.443 85.5638 122.036 88.137 121.426L91.1058 125.275L98.4328 122.666L98.0527 117.878C100.408 116.719 102.661 115.381 104.792 113.877L109.109 116.356L114.838 111.263L112.54 106.962C114.267 105.048 115.816 102.996 117.172 100.828L122.153 101.541L125.407 94.7502L121.56 91.6378C122.385 89.24 122.991 86.7786 123.371 84.2812L128.358 83.1381ZM75.6383 107.228C69.5155 107.031 63.5915 105.108 58.6157 101.701C53.64 98.2948 49.8361 93.5585 47.6851 88.0913C45.5342 82.6242 45.1328 76.6719 46.5319 70.9873C47.931 65.3027 51.0676 60.1413 55.5449 56.156C60.0223 52.1706 65.6393 49.5404 71.6853 48.598C77.7314 47.6556 83.9349 48.4434 89.5111 50.8617C95.0873 53.2799 99.7857 57.2201 103.012 62.1837C106.238 67.1473 107.847 72.9114 107.636 78.7468C107.354 86.5672 103.825 93.9608 97.8247 99.3018C91.8243 104.643 83.8439 107.494 75.6383 107.228V107.228Z" fill="#EBEBEB"/>
<path d="M261.913 58.5442L263.878 56.7956L263.1 55.3186C263.694 54.6568 264.228 53.9488 264.698 53.2021L266.42 53.4455L267.53 51.1027L266.212 50.0331C266.496 49.2048 266.704 48.3547 266.835 47.4923L268.527 47.0905L268.611 44.5213L266.96 44.012C266.887 43.1419 266.74 42.2789 266.52 41.4315L267.916 40.4412L266.966 38.0362L265.238 38.1663C264.821 37.3907 264.339 36.6488 263.795 35.948L264.692 34.5333L262.845 32.6545L261.301 33.4072C260.606 32.843 259.863 32.3338 259.081 31.8849L259.33 30.2438L256.878 29.1743L255.75 30.4362C254.879 30.1778 253.987 29.9885 253.084 29.8703L252.662 28.2632L249.966 28.167L249.426 29.7515C248.517 29.8177 247.615 29.9578 246.73 30.1703L245.697 28.8404L243.168 29.7402L243.31 31.3926C242.494 31.7858 241.715 32.2459 240.983 32.7677L239.487 31.9132L237.515 33.6618L238.281 35.1049C237.684 35.7648 237.147 36.4729 236.678 37.2213L234.962 36.978L233.846 39.3208L235.17 40.396C234.895 41.2231 234.697 42.0713 234.576 42.9312L232.878 43.3329L232.795 45.9021L234.452 46.4114C234.519 47.2817 234.664 48.145 234.885 48.9919L233.484 49.9765L234.434 52.3816L236.167 52.2571C236.584 53.0328 237.067 53.7747 237.61 54.4754L236.714 55.8901L238.56 57.7689L240.104 57.0163C240.798 57.5823 241.541 58.0915 242.325 58.5385L242.069 60.174L244.528 61.2435L245.656 59.9872C246.527 60.243 247.419 60.4322 248.322 60.5531L248.743 62.1602L251.439 62.2564L251.979 60.6719C252.889 60.6061 253.791 60.466 254.675 60.2532L255.708 61.583L258.238 60.6833L258.101 59.0308C258.915 58.6371 259.692 58.177 260.423 57.6557L261.913 58.5442ZM247.888 47.7186C247.37 47.1891 247.028 46.5249 246.905 45.8101C246.783 45.0952 246.886 44.3619 247.201 43.7027C247.516 43.0436 248.029 42.4884 248.675 42.1072C249.321 41.7261 250.072 41.5361 250.831 41.5615C251.591 41.5868 252.325 41.8263 252.942 42.2496C253.559 42.6729 254.03 43.261 254.296 43.9395C254.562 44.618 254.61 45.3564 254.436 46.0613C254.261 46.7663 253.871 47.406 253.315 47.8997C252.946 48.2314 252.512 48.4899 252.037 48.6605C251.563 48.8311 251.057 48.9102 250.55 48.8934C250.043 48.8765 249.545 48.764 249.084 48.5624C248.623 48.3607 248.208 48.074 247.865 47.7186H247.888Z" fill="#EBEBEB"/>
<path d="M190.069 134.895L183.93 130.848C183.328 128.742 182.5 126.699 181.459 124.754L183.033 118.869L174.127 109.78L167.856 110.872C165.889 109.749 163.806 108.822 161.64 108.105V108.105L157.828 101.988L144.765 101.563L140.526 107.415C138.318 107.988 136.177 108.775 134.137 109.763L127.962 108.264L118.426 116.752L119.572 122.717C118.395 124.595 117.424 126.584 116.674 128.653L110.256 132.286L109.811 144.736L115.956 148.776C116.548 150.894 117.374 152.947 118.42 154.899V154.899L116.829 160.733L125.735 169.822L131.964 168.735C133.946 169.86 136.042 170.789 138.222 171.508V171.508L142.028 177.614L155.091 178.044L159.324 172.193C161.552 171.619 163.713 170.83 165.772 169.839L171.912 171.333L181.454 162.844L180.308 156.88C181.489 155.001 182.46 153.009 183.205 150.938V150.938L189.624 147.305L190.069 134.895ZM149.426 153.79C146.526 153.695 143.721 152.783 141.365 151.17C139.009 149.556 137.207 147.312 136.189 144.723C135.171 142.133 134.981 139.314 135.643 136.622C136.306 133.929 137.791 131.485 139.911 129.597C142.032 127.709 144.692 126.463 147.555 126.015C150.419 125.568 153.357 125.94 155.998 127.085C158.64 128.229 160.866 130.094 162.396 132.444C163.925 134.794 164.689 137.524 164.591 140.288C164.455 143.994 162.78 147.498 159.936 150.03C157.092 152.561 153.31 153.914 149.42 153.79H149.426Z" fill="#EBEBEB"/>
<path d="M204.051 99.6165H204.009L193.725 99.2826C193.517 99.279 193.313 99.2252 193.133 99.1263C192.952 99.0273 192.8 98.8864 192.692 98.7167L189.919 94.2744C188.425 93.7534 186.979 93.1136 185.597 92.3617L181.162 93.0917C180.955 93.1278 180.742 93.1135 180.543 93.0502C180.343 92.9869 180.164 92.8766 180.022 92.7296L172.997 85.5653C172.85 85.4169 172.745 85.2348 172.693 85.0366C172.641 84.8383 172.644 84.6306 172.7 84.4336L173.823 80.2403C173.127 78.8815 172.559 77.467 172.125 76.013L167.654 73.0704C167.48 72.957 167.34 72.8036 167.245 72.6245C167.151 72.4454 167.105 72.2464 167.113 72.0461L167.463 62.2449C167.47 62.047 167.528 61.8537 167.632 61.6821C167.735 61.5104 167.881 61.3656 168.057 61.2602L172.73 58.6175C173.269 57.1964 173.939 55.8235 174.731 54.5147L173.912 50.2536C173.873 50.0557 173.888 49.8519 173.955 49.661C174.021 49.47 174.137 49.2982 174.292 49.1614L181.809 42.4725C181.964 42.3315 182.155 42.2309 182.363 42.1804C182.571 42.1298 182.789 42.1311 182.996 42.1839L187.414 43.2591C188.836 42.5961 190.316 42.0527 191.837 41.635L194.925 37.3738C195.04 37.2046 195.2 37.0676 195.389 36.9771C195.578 36.8865 195.789 36.8457 196 36.8589L206.278 37.1984C206.487 37.2026 206.691 37.2566 206.873 37.3554C207.054 37.4543 207.207 37.5948 207.317 37.7643L210.089 42.2122C211.573 42.7314 213.008 43.3714 214.376 44.1249L218.865 43.3383C219.072 43.3018 219.285 43.3158 219.484 43.3791C219.684 43.4425 219.863 43.5531 220.005 43.7005L227.029 50.8647C227.176 51.0137 227.28 51.1959 227.332 51.3939C227.384 51.592 227.382 51.7994 227.326 51.9965L226.198 56.2011C226.894 57.5572 227.466 58.9676 227.908 60.417L232.373 63.3597C232.547 63.4731 232.687 63.6265 232.782 63.8056C232.876 63.9847 232.921 64.1836 232.914 64.3839L232.563 74.1796C232.556 74.3782 232.498 74.5722 232.395 74.7448C232.292 74.9173 232.145 75.0632 231.97 75.1699L227.297 77.8126C226.754 79.2304 226.085 80.6012 225.296 81.9097L226.115 86.1765C226.153 86.3735 226.139 86.5765 226.072 86.7665C226.006 86.9566 225.89 87.1274 225.735 87.263L218.171 93.9575C218.015 94.098 217.824 94.1979 217.616 94.2475C217.408 94.297 217.19 94.2946 216.983 94.2405L212.589 93.171C211.157 93.8309 209.67 94.3742 208.142 94.7951L205.084 99.0506C204.974 99.2186 204.822 99.3581 204.642 99.4568C204.462 99.5555 204.259 99.6103 204.051 99.6165V99.6165ZM194.497 96.9172L203.404 97.2058L206.373 93.137C206.537 92.8995 206.789 92.7298 207.079 92.6617C208.75 92.2262 210.371 91.6328 211.918 90.8904V90.8904C212.188 90.7665 212.495 90.7365 212.785 90.8055L216.941 91.8185L223.473 86.0181L222.725 81.9266C222.667 81.6407 222.722 81.3445 222.879 81.0948C223.761 79.6935 224.487 78.2085 225.046 76.6638C225.141 76.3838 225.339 76.1463 225.604 75.9961L230.075 73.4722L230.378 64.9838L226.103 62.1543C225.878 62.0077 225.709 61.7951 225.622 61.5488C225.622 61.5205 225.622 61.4866 225.622 61.4526C225.165 59.8884 224.544 58.3718 223.77 56.9254C223.632 56.6665 223.599 56.3688 223.675 56.0879L224.743 52.0814L218.657 45.8566L214.388 46.6036C214.09 46.6551 213.783 46.6028 213.521 46.4564C212.048 45.6142 210.488 44.9183 208.866 44.3796C208.773 44.3512 208.684 44.3132 208.599 44.2664C208.428 44.1646 208.285 44.0248 208.184 43.859L205.506 39.5865L196.599 39.2922L193.63 43.3723C193.453 43.6115 193.192 43.7822 192.894 43.8533C191.241 44.284 189.637 44.8737 188.109 45.6132C187.839 45.7443 187.528 45.7765 187.236 45.7038L183.032 44.6852L176.501 50.4856L177.284 54.543C177.331 54.799 177.291 55.0624 177.171 55.2957L177.112 55.3919C176.229 56.7985 175.503 58.2892 174.945 59.8398C174.847 60.1057 174.653 60.3301 174.399 60.4736L169.928 63.0032L169.625 71.4916L173.906 74.321C174.15 74.4802 174.327 74.7169 174.405 74.9888C174.85 76.5778 175.469 78.118 176.251 79.5838C176.294 79.6673 176.327 79.7545 176.352 79.8442C176.397 80.0304 176.397 80.2238 176.352 80.41L175.283 84.3713L181.369 90.5961L185.609 89.8548C185.905 89.8032 186.211 89.8554 186.47 90.0019C187.954 90.8425 189.524 91.5383 191.154 92.0788C191.449 92.1621 191.698 92.3507 191.849 92.6051L194.497 96.9172ZM200.002 86.1822C199.782 86.1822 199.562 86.1822 199.342 86.1822C194.407 86.0993 189.705 84.1618 186.26 80.7913C182.816 77.4207 180.908 72.89 180.951 68.1852C180.995 63.4805 182.986 58.9825 186.492 55.6702C189.998 52.358 194.735 50.4997 199.672 50.4997C204.609 50.4997 209.345 52.358 212.851 55.6702C216.358 58.9825 218.349 63.4805 218.392 68.1852C218.436 72.89 216.528 77.4207 213.083 80.7913C209.639 84.1618 204.937 86.0993 200.002 86.1822ZM200.002 52.7435C195.688 52.8144 191.579 54.5063 188.568 57.451C185.557 60.3956 183.889 64.3546 183.926 68.466C183.963 72.5773 185.703 76.5083 188.767 79.403C191.83 82.2978 195.97 83.9219 200.284 83.9219C204.598 83.9219 208.737 82.2978 211.8 79.403C214.864 76.5083 216.604 72.5773 216.641 68.466C216.678 64.3546 215.01 60.3956 211.999 57.451C208.988 54.5063 204.879 52.8144 200.566 52.7435H200.002Z" fill="#EBEBEB"/>
<path d="M227.736 29.0613L223.473 27.9748L222.333 23.9117L224.001 22.3271L225.759 25.7961L229.405 27.4768L227.736 29.0613Z" fill="#E0E0E0"/>
<path d="M227.998 26.3451C228.182 26.1694 228.329 25.9607 228.428 25.7311C228.528 25.5015 228.58 25.2553 228.58 25.0068C228.58 24.7582 228.528 24.5121 228.428 24.2825C228.329 24.0528 228.182 23.8442 227.998 23.6684C227.814 23.4927 227.595 23.3533 227.354 23.2582C227.113 23.163 226.854 23.1141 226.594 23.1141C226.333 23.1141 226.075 23.163 225.834 23.2582C225.593 23.3533 225.374 23.4927 225.189 23.6684L227.309 20.6353L230.147 22.0047L230.771 24.8342L227.998 26.3451Z" fill="#E0E0E0"/>
<path d="M223.663 22.6553L226.786 19.6787L231.038 20.7596L232.184 24.817L229.06 27.7936L224.803 26.7015L223.663 22.6553ZM229.333 25.0887C229.611 24.8235 229.801 24.4857 229.877 24.118C229.954 23.7503 229.914 23.3692 229.764 23.0229C229.613 22.6766 229.358 22.3807 229.031 22.1725C228.704 21.9642 228.32 21.8531 227.926 21.8531C227.533 21.8531 227.148 21.9642 226.821 22.1725C226.494 22.3807 226.239 22.6766 226.089 23.0229C225.938 23.3692 225.899 23.7503 225.975 24.118C226.052 24.4857 226.241 24.8235 226.519 25.0887C226.895 25.4403 227.402 25.6364 227.929 25.6343C228.456 25.6322 228.96 25.432 229.333 25.0773V25.0887Z" fill="#F0F0F0"/>
<path d="M53.6339 137.368L55.9199 136.779L56.5314 134.6L55.6408 133.751L54.6967 135.613L52.7373 136.513L53.6339 137.368Z" fill="#E0E0E0"/>
<path d="M53.5034 135.908C53.3248 135.713 53.2304 135.461 53.2393 135.203C53.2483 134.945 53.36 134.699 53.5518 134.516C53.7436 134.334 54.0011 134.227 54.2721 134.219C54.5432 134.21 54.8075 134.3 55.0116 134.47L53.8775 132.846L52.3159 133.571L51.9834 135.098L53.5034 135.908Z" fill="#E0E0E0"/>
<path d="M55.8198 133.922L54.1454 132.326L51.8594 132.892L51.2656 135.07L52.9103 136.683L55.1963 136.117L55.8198 133.922ZM52.7797 135.229C52.6696 135.137 52.5805 135.024 52.5179 134.898C52.4552 134.772 52.4204 134.635 52.4156 134.496C52.4107 134.357 52.436 134.218 52.4897 134.088C52.5434 133.958 52.6246 133.841 52.728 133.742C52.8315 133.643 52.9551 133.566 53.0912 133.515C53.2272 133.464 53.3729 133.44 53.5192 133.444C53.6654 133.449 53.8091 133.482 53.9413 133.542C54.0735 133.601 54.1915 133.686 54.2879 133.791C54.4665 133.986 54.5609 134.238 54.5519 134.496C54.543 134.754 54.4313 135 54.2395 135.183C54.0477 135.365 53.7902 135.472 53.5192 135.48C53.2481 135.489 52.9838 135.399 52.7797 135.229V135.229Z" fill="#F0F0F0"/>
<path d="M45.4044 17.936L47.3045 19.7468C47.5421 19.9694 47.8619 20.0941 48.1951 20.0941C48.5283 20.0941 48.8481 19.9694 49.0857 19.7468V19.7468C49.3179 19.5197 49.4478 19.2151 49.4478 18.898C49.4478 18.5809 49.3179 18.2763 49.0857 18.0492L47.1916 16.244C46.9533 16.0227 46.6337 15.8989 46.301 15.8989C45.9683 15.8989 45.6487 16.0227 45.4104 16.244V16.244C45.1778 16.4694 45.047 16.7726 45.0459 17.0888C45.0448 17.405 45.1735 17.709 45.4044 17.936Z" fill="#F0F0F0"/>
<path d="M44.0693 13.4368C44.5651 13.3054 45.0904 13.3148 45.5806 13.464C46.0709 13.6131 46.5047 13.8955 46.829 14.2763C47.1532 14.6572 47.3537 15.12 47.4058 15.608C47.4579 16.0959 47.3594 16.5877 47.1223 17.023C46.8852 17.4584 46.52 17.8182 46.0713 18.0585C45.6226 18.2987 45.1101 18.4088 44.5967 18.3753C44.0833 18.3418 43.5913 18.1662 43.1812 17.8699C42.7711 17.5736 42.4606 17.1697 42.288 16.7076C42.1784 16.3814 42.1376 16.0378 42.1679 15.6965C42.1982 15.3552 42.2991 15.023 42.4646 14.719C42.6302 14.415 42.8572 14.1452 43.1326 13.9251C43.408 13.7051 43.7263 13.5391 44.0693 13.4368V13.4368Z" fill="#E0E0E0"/>
<path d="M42.0033 16.4047L42.2783 17.1343L47.9222 15.202L47.6472 14.4723L42.0033 16.4047Z" fill="#F0F0F0"/>
<path d="M148.505 211.415C212.086 211.415 263.629 208.547 263.629 205.009C263.629 201.471 212.086 198.603 148.505 198.603C84.9236 198.603 33.3809 201.471 33.3809 205.009C33.3809 208.547 84.9236 211.415 148.505 211.415Z" fill="#F5F5F5"/>
<path d="M51.5568 37.7361C50.963 35.2405 51.2243 33.1467 52.3524 31.4377C53.4806 29.7287 55.3212 28.6082 57.9397 28.0424C60.5582 27.4765 62.8204 27.7028 64.5898 28.7554C66.3592 29.8079 67.5586 31.5848 68.1524 34.0182C68.5716 35.5201 68.6062 37.096 68.2533 38.6132C67.9081 39.8734 67.1787 41.0077 66.1573 41.8728C64.9442 42.8462 63.4881 43.505 61.9298 43.7855C60.4022 44.1721 58.8027 44.2243 57.251 43.9383C55.9021 43.6259 54.6821 42.9361 53.7478 41.9577C52.6315 40.7644 51.8745 39.3058 51.5568 37.7361V37.7361ZM56.5088 36.6836C56.8769 38.2228 57.441 39.264 58.201 39.8073C58.5933 40.0566 59.0345 40.2277 59.4979 40.3104C59.9614 40.393 60.4377 40.3855 60.898 40.2882C61.3584 40.191 61.7934 40.006 62.1768 39.7444C62.5602 39.4828 62.8842 39.15 63.1292 38.766C63.5567 37.9794 63.5626 36.7288 63.1589 35.0255C62.8145 33.5881 62.2583 32.6035 61.4904 32.0715C61.1038 31.807 60.6598 31.6286 60.1913 31.5492C59.7227 31.4699 59.2414 31.4917 58.7829 31.6131C58.3239 31.6951 57.8904 31.8751 57.515 32.1398C57.1397 32.4044 56.8321 32.7468 56.6156 33.1411C56.1762 33.9729 56.1347 35.1047 56.5088 36.6836Z" fill="#263238"/>
<path d="M70.4801 35.8688C70.2691 35.0976 70.2315 34.2927 70.3697 33.5067C70.5078 32.7207 70.8186 31.9713 71.2816 31.3077C71.8008 30.6027 72.4608 30.0023 73.224 29.5411C73.9872 29.0798 74.8384 28.7667 75.7289 28.6197C78.0525 28.118 79.9604 28.3802 81.4527 29.4063C82.7086 30.3342 83.5624 31.67 83.8515 33.1592C84.1406 34.6484 83.8447 36.1869 83.0203 37.4816C82.094 38.8284 80.5858 39.7263 78.4958 40.1753C76.8856 40.6043 75.1677 40.4719 73.6507 39.8018C72.8396 39.424 72.1312 38.8723 71.5811 38.1899C71.031 37.5076 70.6542 36.7132 70.4801 35.8688V35.8688ZM74.9392 34.8898C75.0593 35.6806 75.4645 36.4069 76.0851 36.944C76.3312 37.1215 76.6148 37.2458 76.9163 37.3083C77.2178 37.3708 77.53 37.3699 77.8312 37.3059C78.1323 37.2418 78.4152 37.116 78.6602 36.9372C78.9052 36.7584 79.1064 36.531 79.2499 36.2706C79.5608 35.5105 79.5901 34.672 79.333 33.8939C79.2081 33.1216 78.8075 32.4141 78.1989 31.8906C77.9628 31.7081 77.6856 31.58 77.389 31.5162C77.0924 31.4524 76.7844 31.4546 76.4889 31.5228C76.1808 31.5836 75.8913 31.7105 75.6424 31.8939C75.3934 32.0772 75.1915 32.3122 75.052 32.581C74.7323 33.3143 74.6923 34.1313 74.9392 34.8898Z" fill="#263238"/>
<path d="M88.2872 42.2179L84.6475 26.9387L88.8038 26.0333L89.1957 27.6687C89.4889 27.0165 89.9147 26.4261 90.4485 25.9315C91.0343 25.4576 91.7339 25.129 92.4851 24.9751C93.1792 24.7951 93.9098 24.7848 94.6092 24.945C95.3087 25.1052 95.9545 25.4309 96.487 25.8918C97.6605 26.9374 98.4566 28.3102 98.7611 29.8135C99.2005 31.6526 99.0699 33.1579 98.3811 34.3406C98.0535 34.9061 97.6008 35.3969 97.0543 35.779C96.5078 36.1611 95.8807 36.4253 95.2164 36.5533C94.5763 36.6979 93.9129 36.7229 93.2629 36.6268C92.6395 36.5228 92.0452 36.2974 91.5173 35.9647L92.776 41.2445L88.2872 42.2179ZM90.4307 31.5451C90.5397 32.2519 90.9104 32.8982 91.4757 33.3673C91.7024 33.5327 91.9654 33.6472 92.2451 33.702C92.5248 33.7569 92.8139 33.7508 93.0907 33.6842C93.3478 33.6351 93.5892 33.5291 93.7955 33.3748C94.0018 33.2204 94.1671 33.0221 94.2782 32.7957C94.5307 32.0875 94.5307 31.3196 94.2782 30.6114C94.1697 29.9011 93.8118 29.2468 93.2629 28.7553C93.0593 28.5941 92.8196 28.4797 92.5622 28.4208C92.3048 28.3619 92.0367 28.3602 91.7785 28.4157C91.5057 28.4719 91.2497 28.586 91.0297 28.7496C90.8097 28.9133 90.6313 29.1222 90.5079 29.3608C90.2172 30.0583 90.1899 30.8305 90.4307 31.5451Z" fill="#263238"/>
<path d="M100.666 31.8792L104.989 30.5267C105.219 30.9249 105.577 31.2423 106.01 31.4321C106.476 31.5608 106.97 31.5711 107.442 31.4619C107.914 31.3527 108.347 31.1279 108.7 30.8096C108.798 30.7098 108.87 30.5885 108.908 30.4564C108.946 30.3243 108.95 30.1852 108.92 30.0513C108.884 29.8981 108.801 29.7586 108.681 29.6507C108.562 29.5428 108.411 29.4714 108.249 29.4458C107.578 29.3756 106.901 29.3756 106.23 29.4458C105.104 29.5371 103.972 29.5371 102.845 29.4458C102.186 29.3546 101.568 29.0856 101.064 28.6705C100.526 28.227 100.155 27.6286 100.006 26.9659C99.8572 26.3033 99.9389 25.6124 100.239 24.9979C100.585 24.3404 101.123 23.7921 101.789 23.419C102.736 22.9062 103.765 22.5449 104.834 22.3495C105.856 22.0853 106.912 21.9634 107.97 21.9873C108.634 22.0281 109.278 22.2223 109.846 22.5532C110.451 22.9424 110.965 23.4473 111.354 24.0359L107.198 25.3431C107.042 25.0482 106.784 24.8141 106.467 24.681C106.034 24.5333 105.565 24.5136 105.119 24.6244C104.726 24.6767 104.362 24.8495 104.08 25.1167C103.991 25.2078 103.927 25.3184 103.892 25.4387C103.858 25.5591 103.856 25.6855 103.884 25.8071C103.917 25.9409 103.991 26.0623 104.097 26.1552C104.203 26.2482 104.336 26.3083 104.478 26.3277C105.142 26.4012 105.813 26.3878 106.473 26.2881C107.618 26.13 108.78 26.1148 109.929 26.2429C110.652 26.3402 111.329 26.6372 111.876 27.0974C112.372 27.5253 112.716 28.0886 112.862 28.7102C113.014 29.3767 112.959 30.071 112.702 30.7078C112.388 31.4616 111.841 32.1068 111.134 32.5582C110.093 33.2071 108.926 33.6515 107.702 33.8654C105.585 34.3257 104.001 34.3653 102.952 33.9843C101.93 33.5953 101.109 32.8393 100.666 31.8792V31.8792Z" fill="#263238"/>
<path d="M115.166 17.8848H120.041V21.4499L119.144 28.6198H116.128L115.166 21.4612V17.8848ZM115.404 29.7006H119.952V33.5374H115.404V29.7006Z" fill="#263238"/>
<path d="M76.4695 66.5576H76.3627C73.6908 65.5673 72.0936 64.6053 71.2623 63.4452C70.6116 63.5627 69.9384 63.4753 69.3444 63.1962C68.6486 62.8717 68.0714 62.3551 67.6879 61.7136C67.4863 61.861 67.2488 61.9575 66.9976 61.9942C66.7464 62.0308 66.4896 62.0063 66.251 61.923C65.5192 61.662 64.8948 61.1839 64.4697 60.5592C64.2038 60.7479 63.8733 60.8348 63.5434 60.8025C61.7621 60.6667 59.3871 57.3166 59.2149 53.7515C59.2132 53.6762 59.2417 53.6032 59.2947 53.5474C59.3478 53.4916 59.4212 53.4573 59.4999 53.4515C59.5389 53.45 59.5778 53.4559 59.6145 53.4687C59.6511 53.4815 59.6847 53.5011 59.7134 53.5263C59.7421 53.5516 59.7652 53.5819 59.7816 53.6157C59.7979 53.6495 59.8072 53.686 59.8087 53.7232C59.9749 57.1185 62.249 60.1347 63.5969 60.2366C63.6949 60.2471 63.7942 60.239 63.889 60.2128C63.9837 60.1866 64.0721 60.1427 64.1491 60.0838C63.6847 59.277 63.3931 58.3903 63.2911 57.4752C63.1892 56.5601 63.279 55.6349 63.5553 54.7531C64.0659 53.0554 64.5172 52.3877 65.0634 52.4895C66.0847 52.7329 65.9481 56.4508 65.4078 58.8785C65.3259 59.3163 65.1566 59.7351 64.9091 60.1121C65.2591 60.6715 65.7875 61.1097 66.4172 61.3627C66.585 61.4236 66.7677 61.4374 66.9435 61.4022C67.1192 61.3671 67.2807 61.2847 67.4088 61.1647C66.9457 60.0725 66.815 58.5785 67.48 56.6771C68.3113 54.1702 68.6676 54.1023 68.8516 54.0571C68.9209 54.0432 68.9927 54.0474 69.0596 54.0694C69.1265 54.0913 69.186 54.13 69.2316 54.1816C69.7838 54.7757 69.1248 58.6691 68.436 60.5931C68.3553 60.8247 68.2436 61.0453 68.1035 61.2496C68.4221 61.8616 68.941 62.3582 69.582 62.6643C70.0023 62.8591 70.4698 62.9431 70.9357 62.9076C70.8823 62.8001 70.8348 62.6926 70.7873 62.5794C70.3182 61.3627 70.5498 59.965 71.4939 58.2899C72.1173 57.1864 72.6279 56.6658 73.1029 56.6658C73.229 56.6674 73.352 56.7035 73.4572 56.7697C73.5625 56.8359 73.6456 56.9294 73.6967 57.0393C74.2133 57.9504 73.8392 60.9553 72.8179 62.4493C72.5788 62.7917 72.2463 63.0656 71.856 63.2415C72.6517 64.2375 74.1658 65.1146 76.6061 66.0087C76.6427 66.0213 76.6763 66.0407 76.7049 66.0659C76.7334 66.091 76.7564 66.1214 76.7725 66.1551C76.7885 66.1889 76.7973 66.2254 76.7983 66.2625C76.7993 66.2995 76.7925 66.3364 76.7783 66.3709C76.7552 66.4298 76.7126 66.48 76.6568 66.5137C76.6011 66.5474 76.5353 66.5628 76.4695 66.5576ZM73.097 57.2374C73.097 57.2374 72.7586 57.2374 72.0104 58.5672C71.1495 60.0838 70.9298 61.3344 71.3395 62.387C71.3891 62.5173 71.4487 62.644 71.5176 62.7662C71.8392 62.6395 72.1127 62.4223 72.3014 62.1437C73.1326 60.9327 73.5304 58.4427 73.2217 57.4694C73.1801 57.2713 73.097 57.2374 73.097 57.2374ZM68.8338 54.855C68.5124 55.4992 68.2463 56.1673 68.0382 56.8526C67.5828 58.0402 67.5043 59.3293 67.8125 60.5592L67.866 60.412C68.4895 58.6183 68.8219 56.7443 68.8516 54.855H68.8338ZM64.9269 53.0724C64.8259 53.1573 64.535 53.5138 64.1253 54.8946C63.6407 56.4442 63.7936 58.1115 64.5528 59.5575C64.6746 59.3045 64.7643 59.0386 64.82 58.7653C65.4553 55.9867 65.2772 53.4742 64.9447 53.0724H64.9269Z" fill="#263238"/>
<path d="M99.0437 96.2216C98.0945 96.2303 97.1599 95.9979 96.3362 95.5482C96.2684 95.5093 96.2192 95.4467 96.1993 95.3737C96.1793 95.3008 96.1901 95.2232 96.2293 95.1577C96.2489 95.1258 96.2749 95.098 96.306 95.0758C96.337 95.0536 96.3723 95.0376 96.41 95.0286C96.4476 95.0197 96.4867 95.018 96.525 95.0236C96.5633 95.0293 96.6001 95.0422 96.6331 95.0615C98.7528 96.2443 101.49 95.4181 102.054 94.5522C102.095 94.498 102.124 94.4364 102.139 94.3713C102.154 94.3062 102.156 94.2388 102.143 94.1731C101.059 94.2324 99.9859 93.9413 99.0972 93.3469C97.5831 92.4471 97.4643 92.1755 97.4762 91.9604C97.4791 91.8987 97.4994 91.8387 97.5349 91.787C97.5704 91.7352 97.6199 91.6935 97.6781 91.6662C98.2719 91.3832 100.95 92.5546 102.066 93.2563C102.2 93.341 102.323 93.4397 102.434 93.5506C102.873 93.4558 103.268 93.2297 103.562 92.9055C103.728 92.7201 103.848 92.5015 103.913 92.266H103.794C102.844 92.3566 101.894 91.9661 100.878 91.072C100.178 90.4608 99.9106 90.0364 99.9997 89.7025C100.027 89.6087 100.081 89.5242 100.157 89.459C100.233 89.3938 100.327 89.3507 100.427 89.3347C101.247 89.1366 103.277 89.9628 104.103 90.8287C104.287 91.0169 104.417 91.2467 104.483 91.4964C105.26 91.1512 106.08 90.3646 107.048 89.08C107.07 89.0494 107.099 89.0234 107.132 89.0034C107.165 88.9834 107.202 88.9699 107.241 88.9635C107.279 88.9572 107.319 88.9583 107.357 88.9666C107.395 88.975 107.431 88.9904 107.463 89.0121C107.527 89.0564 107.57 89.1225 107.583 89.1964C107.596 89.2704 107.579 89.3464 107.535 89.4083C106.412 90.9022 105.474 91.7511 104.536 92.0963C104.487 92.5145 104.307 92.909 104.019 93.2281C103.677 93.607 103.228 93.884 102.725 94.026C102.753 94.161 102.753 94.3001 102.725 94.4351C102.696 94.5701 102.64 94.6984 102.559 94.8125C102.06 95.6218 100.623 96.2216 99.0437 96.2216ZM98.5153 92.2943C98.7172 92.4358 99.0022 92.6225 99.4119 92.8602C100.05 93.2707 100.784 93.527 101.549 93.6072C100.594 93.061 99.5758 92.6205 98.5153 92.2943V92.2943ZM100.588 89.8893C100.758 90.1953 100.995 90.4634 101.282 90.6759C102.161 91.4511 102.963 91.8077 103.734 91.7171H103.924C103.882 91.5414 103.792 91.3793 103.663 91.2474C102.832 90.3533 101.003 89.7987 100.588 89.8893Z" fill="#263238"/>
<path d="M106.906 95.4465L97.6549 97.0479L89.2532 53.3496L71.4048 56.4394L42.3105 105.672L45.4337 121.919L82.7515 115.462L85.3047 128.749L103.153 125.648L100.6 112.361L109.851 110.76L106.906 95.4465ZM60.0877 103.578L75.5254 77.7906L79.8302 100.166L60.0877 103.578Z" fill="#62A944"/>
<path d="M181.417 50.3841C181.136 47.6371 180.498 44.934 179.517 42.3371C178.508 39.8495 177.106 37.5233 175.361 35.4389C173.294 33.0138 170.728 31.0185 167.82 29.5762C164.653 27.92 160.453 26.7675 155.22 26.1186C144.355 24.768 135.888 26.6053 129.819 31.6304C123.751 36.6556 119.753 46.2757 117.825 60.491C117.056 65.8036 116.857 71.1773 117.232 76.5284C117.627 81.4328 118.574 85.3809 120.07 88.3726C121.974 92.407 124.978 95.8814 128.768 98.4342C132.517 100.943 137.663 102.601 144.206 103.408C155.836 104.853 164.459 102.724 170.076 97.0194C175.693 91.3152 179.414 81.6762 181.239 68.1023C182.05 62.2248 182.11 56.2753 181.417 50.3841V50.3841Z" fill="#62A944"/>
<path d="M149.556 97.5967C148.125 97.5515 146.587 97.427 145.037 97.2346C139.598 96.5611 135.394 95.2483 132.532 93.3355C129.678 91.4148 127.422 88.7948 126.001 85.7526L125.971 85.6903C124.831 83.4267 124.083 80.1729 123.757 76.0701C123.411 71.142 123.594 66.193 124.303 61.3003C126.423 45.6137 130.799 39.0663 134.094 36.3387C137.942 33.1584 143.137 31.721 149.965 31.9474C151.366 31.9927 152.851 32.1115 154.377 32.2982C158.759 32.8641 162.232 33.7696 164.69 35.0485C166.815 36.091 168.695 37.5329 170.218 39.287C171.551 40.8713 172.622 42.6403 173.395 44.5329C174.184 46.6431 174.694 48.8387 174.915 51.0689C175.548 56.4731 175.49 61.9305 174.743 67.3214C173.098 79.5108 169.916 88.0784 165.29 92.7866C161.858 96.2725 156.71 97.8797 149.55 97.6194L149.556 97.5967Z" fill="#263238"/>
<path d="M161.175 50.5483L161.252 48.4035L159.869 47.9734C159.81 47.248 159.687 46.5287 159.501 45.823L160.688 44.9968L159.893 42.9823L158.444 43.0954C158.103 42.448 157.706 41.829 157.256 41.245L158.005 40.0509L156.461 38.4834L155.166 39.1172C154.587 38.6426 153.968 38.2148 153.314 37.8383L153.522 36.4688L151.467 35.5804L150.529 36.6329C149.803 36.4086 149.058 36.242 148.303 36.1349L147.952 34.7938L145.696 34.7202L145.251 36.0331C144.49 36.0911 143.735 36.2085 142.994 36.3839L142.122 35.2522L140.008 36.0048L140.127 37.3856C139.447 37.7106 138.798 38.0891 138.185 38.5174L136.938 37.7987L135.287 39.2643L135.952 40.5036C135.453 41.0553 135.006 41.648 134.616 42.2749L133.18 42.0655L132.241 44.0235L133.352 44.9176C133.111 45.6104 132.936 46.3226 132.829 47.0454L131.416 47.3849L131.339 49.524L132.722 49.9541C132.78 50.6815 132.903 51.4028 133.09 52.1101L131.903 52.9307L132.699 54.9453L134.147 54.8321C134.485 55.4814 134.882 56.1006 135.335 56.6826L134.581 57.8766L136.125 59.4441L137.419 58.816C137.998 59.2887 138.618 59.7146 139.271 60.0892L139.058 61.4587L141.112 62.3471L142.056 61.3002C142.785 61.5234 143.531 61.688 144.289 61.7926L144.639 63.1394L146.889 63.213L147.335 61.8944C148.098 61.8392 148.855 61.7218 149.597 61.5436L150.458 62.6754L152.572 61.9227L152.459 60.5476C153.136 60.2185 153.785 59.8401 154.4 59.4158L155.647 60.1288L157.298 58.6632L156.639 57.4239C157.136 56.8741 157.581 56.2833 157.969 55.6583L159.406 55.862L160.344 53.904L159.24 53.0099C159.476 52.3181 159.649 51.6081 159.756 50.8878L161.175 50.5483ZM145.975 57.4918C144.216 57.4305 142.516 56.8741 141.089 55.8928C139.662 54.9114 138.572 53.5492 137.956 51.9779C137.341 50.4066 137.228 48.6967 137.631 47.0641C138.034 45.4315 138.936 43.9494 140.222 42.8047C141.508 41.6601 143.121 40.9043 144.858 40.6327C146.595 40.3611 148.377 40.5859 149.979 41.2787C151.582 41.9715 152.933 43.1013 153.863 44.5255C154.792 45.9496 155.258 47.6043 155.202 49.2807C155.165 50.398 154.896 51.4973 154.411 52.5154C153.927 53.5335 153.236 54.4504 152.379 55.2133C151.521 55.9763 150.514 56.5703 149.415 56.9613C148.316 57.3523 147.147 57.5326 145.975 57.4918V57.4918Z" fill="#62A944"/>
<path opacity="0.3" d="M170.544 89.9231L170.71 88.4744L169.796 88.1236C169.795 87.6306 169.751 87.1385 169.665 86.6523L170.491 86.1486L170.069 84.7509H169.083C168.889 84.2962 168.652 83.8588 168.377 83.4436L168.935 82.674L167.985 81.5422L167.077 81.9044C166.708 81.5573 166.311 81.2394 165.889 80.9537L166.109 80.037L164.773 79.3353L164.072 80.0087C163.595 79.8215 163.102 79.672 162.6 79.5616L162.433 78.6392L160.919 78.4751L160.545 79.3466C160.029 79.3489 159.515 79.3943 159.007 79.4824L158.479 78.6788L157.012 79.0919V80.0313C156.535 80.2191 156.076 80.4463 155.641 80.7104L154.833 80.1445L153.646 81.0499L154.026 81.9157C153.664 82.2669 153.332 82.6454 153.034 83.0475L152.072 82.8438L151.342 84.1171L152.043 84.7792C151.844 85.235 151.687 85.7064 151.574 86.1882L150.6 86.341L150.439 87.7841L151.348 88.1462C151.348 88.6358 151.394 89.1243 151.484 89.6062L150.647 90.1099L151.075 91.5076H152.066C152.265 91.96 152.503 92.3955 152.779 92.8092L152.185 93.5788L153.135 94.7106L154.055 94.3428C154.421 94.691 154.818 95.0073 155.243 95.2878L155.035 96.2215L156.371 96.9176L157.066 96.2555C157.544 96.4382 158.036 96.584 158.538 96.6912L158.711 97.6193L160.225 97.7777L160.593 96.9119C161.118 96.9112 161.642 96.8696 162.16 96.7874L162.689 97.5853L164.149 97.1779V96.2385C164.627 96.0473 165.087 95.8202 165.527 95.5594L166.323 96.1253L167.51 95.2142L167.124 94.3484C167.49 93.9975 167.825 93.619 168.128 93.2166L169.083 93.4204L169.82 92.1471L169.119 91.4907C169.31 91.0351 169.463 90.5658 169.576 90.0872L170.544 89.9231ZM162.902 89.3572C162.651 89.7954 162.269 90.1526 161.805 90.3838C161.341 90.615 160.815 90.7098 160.294 90.6561C159.773 90.6024 159.281 90.4026 158.879 90.0821C158.477 89.7616 158.184 89.3347 158.037 88.8555C157.89 88.3763 157.895 87.8663 158.052 87.3899C158.21 86.9136 158.511 86.4924 158.92 86.1796C159.328 85.8668 159.825 85.6765 160.346 85.6327C160.868 85.5889 161.392 85.6936 161.852 85.9336C162.466 86.2561 162.921 86.7973 163.118 87.4388C163.315 88.0803 163.237 88.77 162.902 89.3572V89.3572Z" fill="#62A944"/>
<path d="M178.959 65.465L177.177 64.2993C177.002 63.6933 176.763 63.1056 176.465 62.545L176.916 60.8473L174.351 58.2273L172.57 58.5442C172.005 58.2235 171.408 57.9563 170.789 57.7462V57.7462L169.69 55.9807L165.932 55.8618L164.708 57.5595C164.072 57.724 163.455 57.9516 162.868 58.2386L161.086 57.8028L158.337 60.2532L158.67 61.9508C158.329 62.487 158.048 63.056 157.833 63.6485L155.986 64.6954L155.855 68.2775L157.637 69.4433C157.809 70.0538 158.048 70.6455 158.349 71.2089V71.2089L157.898 72.9065L160.463 75.5266L162.244 75.2154C162.81 75.5355 163.406 75.8027 164.026 76.0133V76.0133L165.118 77.7732L168.883 77.8977L170.1 76.2C170.742 76.034 171.364 75.8065 171.958 75.521V75.521L173.739 75.951L176.489 73.5064L176.162 71.8087C176.499 71.2707 176.78 70.702 176.999 70.111V70.111L178.846 69.0641L178.959 65.465ZM167.244 70.9089C166.408 70.8816 165.6 70.6187 164.921 70.1534C164.242 69.6882 163.723 69.0415 163.43 68.2952C163.136 67.5489 163.082 66.7365 163.273 65.9607C163.465 65.1849 163.893 64.4805 164.504 63.9367C165.115 63.3929 165.882 63.0341 166.707 62.9057C167.533 62.7772 168.379 62.8849 169.14 63.215C169.901 63.5452 170.543 64.0831 170.983 64.7606C171.423 65.4381 171.643 66.2248 171.614 67.0212C171.574 68.0885 171.091 69.0971 170.272 69.8258C169.453 70.5546 168.364 70.9441 167.244 70.9089V70.9089Z" fill="white"/>
<path d="M191.848 36.8704L192.157 36.1631C192.367 36.0503 192.566 35.9196 192.751 35.7726H193.439L194.247 34.6408L193.986 34.0353C194.086 33.8336 194.165 33.6233 194.223 33.4072V33.4072L194.817 32.8865L194.568 31.5567L193.819 31.2624C193.702 31.0617 193.565 30.8722 193.41 30.6965V30.0401L192.252 29.2705L191.611 29.5251C191.376 29.4464 191.133 29.3933 190.886 29.3667L190.34 28.8008L188.951 29.0385L188.636 29.7515C188.416 29.8604 188.207 29.9892 188.013 30.1363V30.1363H187.33L186.522 31.2681L186.783 31.8736C186.704 32.0978 186.648 32.3291 186.617 32.564L186.023 33.0903L186.273 34.4144L187.021 34.7087C187.134 34.9104 187.27 35.1001 187.425 35.2746V35.2746V35.9254L188.612 36.695L189.248 36.446C189.485 36.5196 189.73 36.5708 189.978 36.5988V36.5988L190.524 37.1647L191.848 36.8704ZM188.879 33.2034C188.823 32.9082 188.86 32.6037 188.986 32.3285C189.111 32.0533 189.32 31.8197 189.584 31.6574C189.849 31.4951 190.159 31.4113 190.473 31.4166C190.788 31.4219 191.094 31.5162 191.353 31.6873C191.612 31.8585 191.811 32.099 191.926 32.3782C192.041 32.6575 192.067 32.9631 192 33.2563C191.933 33.5495 191.776 33.8171 191.549 34.0252C191.322 34.2334 191.036 34.3728 190.726 34.4258C190.311 34.4951 189.885 34.4056 189.539 34.1767C189.193 33.9478 188.956 33.598 188.879 33.2034V33.2034Z" fill="#62A944"/>
<path d="M175.586 33.1187L175.129 32.7509C176.109 31.5927 177.319 30.631 178.691 29.9214L178.971 30.4194C177.666 31.0964 176.515 32.014 175.586 33.1187V33.1187Z" fill="#62A944"/>
<path d="M180.324 29.8991L180.093 29.3784C182.285 28.4703 184.683 28.1044 187.064 28.3145L187.004 28.8804C184.723 28.6755 182.425 29.026 180.324 29.8991V29.8991Z" fill="#62A944"/>
<path d="M179.202 33.8148L178.715 33.4979C180.145 31.6568 182.227 30.3722 184.575 29.8818L184.688 30.4477C182.494 30.9044 180.546 32.0999 179.202 33.8148V33.8148Z" fill="#62A944"/>
<path d="M139.799 88.2991C139.718 88.2968 139.642 88.2643 139.585 88.2086L138.345 86.9863C137.712 86.9316 137.086 86.8217 136.474 86.658L134.533 87.4729C134.49 87.4952 134.442 87.5069 134.393 87.5069C134.344 87.5069 134.296 87.4952 134.254 87.4729L131 85.4187C130.958 85.3924 130.924 85.3561 130.901 85.3135C130.878 85.2708 130.867 85.2233 130.869 85.1754V83.1608C130.472 82.6874 130.122 82.1797 129.824 81.6442L128.156 81.0331C128.109 81.0158 128.067 80.9876 128.035 80.9509C128.003 80.9143 127.981 80.8705 127.972 80.8237L127.2 77.1793C127.189 77.1328 127.192 77.0845 127.206 77.039C127.221 76.9935 127.247 76.9522 127.283 76.919L128.565 75.7363C128.627 75.1338 128.742 74.5375 128.91 73.9537L128.055 72.1033C128.031 72.0625 128.019 72.0167 128.019 71.9703C128.019 71.9238 128.031 71.8781 128.055 71.8373L130.21 68.7362C130.237 68.6953 130.275 68.6622 130.32 68.6403C130.365 68.6184 130.415 68.6085 130.465 68.6117L132.579 68.64C133.074 68.2596 133.607 67.926 134.17 67.644L134.818 66.0538C134.835 66.0097 134.863 65.9705 134.901 65.9398C134.938 65.9091 134.983 65.888 135.031 65.8784L138.855 65.1428C138.904 65.1325 138.955 65.1344 139.003 65.1482C139.05 65.1621 139.094 65.1875 139.128 65.222L140.369 66.4443C141.004 66.4995 141.632 66.6093 142.246 66.7725L144.181 65.9576C144.225 65.9354 144.274 65.9237 144.324 65.9237C144.373 65.9237 144.422 65.9354 144.466 65.9576L147.714 68.0118C147.755 68.0393 147.789 68.0757 147.813 68.118C147.837 68.1602 147.849 68.2072 147.851 68.2552L147.815 70.2698C148.214 70.7431 148.566 71.2508 148.866 71.7864L150.528 72.4032C150.575 72.4195 150.616 72.4467 150.648 72.4824C150.68 72.518 150.702 72.5609 150.713 72.6069L151.49 76.2513C151.5 76.2978 151.497 76.3458 151.482 76.3911C151.468 76.4364 151.442 76.4778 151.407 76.5116L150.119 77.6999C150.059 78.3008 149.944 78.8954 149.774 79.4769L150.629 81.3273C150.653 81.3691 150.665 81.4158 150.665 81.4631C150.665 81.5105 150.653 81.5572 150.629 81.599L148.504 84.6718C148.476 84.7102 148.439 84.7416 148.395 84.7633C148.352 84.785 148.303 84.7963 148.254 84.7962L146.135 84.768C145.638 85.1432 145.107 85.4765 144.549 85.7639L143.902 87.3541C143.884 87.3989 143.855 87.4386 143.817 87.4694C143.778 87.5001 143.732 87.5208 143.682 87.5295L139.859 88.2991H139.799ZM136.456 86.0356C136.484 86.0304 136.512 86.0304 136.539 86.0356C137.181 86.2136 137.839 86.3292 138.505 86.3808C138.576 86.3888 138.643 86.4185 138.695 86.4656L139.882 87.654L143.386 86.9806L144.015 85.43C144.044 85.3674 144.094 85.3157 144.157 85.2829C144.751 84.9906 145.31 84.6397 145.826 84.236C145.88 84.1922 145.951 84.1699 146.022 84.1738L148.082 84.2021L150.053 81.3726L149.222 79.5731C149.199 79.5109 149.199 79.4428 149.222 79.3806C149.406 78.7688 149.527 78.1415 149.584 77.5075C149.59 77.439 149.622 77.3748 149.673 77.3265L150.92 76.1947L150.214 72.8559L148.593 72.256C148.523 72.2319 148.466 72.1833 148.432 72.1202C148.124 71.5558 147.756 71.0229 147.334 70.5301C147.292 70.4783 147.269 70.4146 147.269 70.349V68.3797L144.3 66.5009L142.418 67.2932C142.351 67.316 142.277 67.316 142.21 67.2932C141.566 67.116 140.906 67.0004 140.239 66.948C140.167 66.94 140.101 66.9102 140.049 66.8631L138.861 65.6747L135.358 66.3538L134.734 67.927C134.71 67.9918 134.661 68.046 134.598 68.0797C134.002 68.3713 133.441 68.7222 132.923 69.1266C132.898 69.1487 132.868 69.1656 132.835 69.1763C132.803 69.187 132.768 69.1913 132.733 69.1889L130.673 69.1606L128.696 71.9901L129.527 73.7896C129.546 73.8276 129.556 73.8692 129.556 73.9113C129.556 73.9534 129.546 73.9949 129.527 74.0329C129.351 74.6303 129.236 75.2424 129.183 75.8608C129.177 75.9295 129.146 75.9939 129.094 76.0419L127.847 77.1737L128.559 80.5124L130.174 81.1123C130.246 81.1408 130.305 81.193 130.341 81.2594C130.647 81.8201 131.013 82.3492 131.433 82.8383C131.477 82.8891 131.5 82.9534 131.498 83.0193V84.9887L134.467 86.8674L136.355 86.0752C136.386 86.0564 136.421 86.0429 136.456 86.0356V86.0356ZM139.372 84.2021C137.943 84.2008 136.54 83.8306 135.314 83.1306C134.088 82.4306 133.084 81.4271 132.409 80.2267C131.733 79.0263 131.412 77.6739 131.479 76.3133C131.545 74.9527 131.997 73.6347 132.787 72.4994V72.4994C133.542 71.4102 134.581 70.5266 135.802 69.9348C137.023 69.343 138.385 69.0634 139.753 69.1233C141.121 69.1832 142.45 69.5805 143.609 70.2765C144.768 70.9725 145.718 71.9432 146.365 73.0937C147.012 74.2443 147.335 75.5353 147.302 76.8404C147.269 78.1456 146.882 79.4203 146.177 80.5398C145.472 81.6593 144.474 82.5853 143.282 83.2272C142.089 83.8691 140.742 84.205 139.372 84.2021ZM133.286 72.8106C132.486 73.9599 132.063 75.3092 132.068 76.6879C132.073 78.0667 132.508 79.413 133.316 80.5566C134.124 81.7002 135.269 82.5898 136.608 83.1128C137.946 83.6359 139.418 83.769 140.836 83.4953C142.253 83.2215 143.554 82.5532 144.574 81.5749C145.593 80.5966 146.285 79.3522 146.563 77.999C146.84 76.6458 146.69 75.2447 146.132 73.9726C145.574 72.7006 144.633 71.6148 143.427 70.8526C142.628 70.3426 141.73 69.9886 140.786 69.811C139.843 69.6333 138.871 69.6356 137.928 69.8176C136.985 69.9997 136.09 70.3579 135.293 70.8716C134.496 71.3853 133.814 72.0443 133.286 72.8106V72.8106Z" fill="white"/>
<path d="M252.906 100.551L243.584 99.3508L249.747 55.3186L231.768 53.0098L188.156 91.2755L185.864 107.647L223.443 112.48L221.567 125.874L239.546 128.183L241.422 114.794L250.744 115.994L252.906 100.551ZM205.749 94.4841L228.763 74.4911L225.605 97.0363L205.749 94.4841Z" fill="#62A944"/>
<path d="M234.082 127.764H234.005C233.928 127.751 233.86 127.708 233.815 127.647C233.771 127.585 233.754 127.51 233.767 127.436L247.661 55.0356C247.677 54.9629 247.722 54.8988 247.786 54.8567C247.85 54.8145 247.929 54.7976 248.006 54.8093C248.083 54.8231 248.151 54.8653 248.195 54.9268C248.24 54.9882 248.257 55.064 248.243 55.1375L234.379 127.532C234.365 127.598 234.328 127.657 234.274 127.699C234.22 127.741 234.152 127.764 234.082 127.764V127.764Z" fill="#263238"/>
<path d="M246.373 56.2523C246.369 56.3754 246.313 56.4916 246.218 56.5755C246.124 56.6593 245.998 56.7039 245.869 56.6994C245.74 56.6949 245.618 56.6417 245.53 56.5515C245.442 56.4612 245.395 56.3414 245.4 56.2184C245.404 56.0953 245.46 55.979 245.555 55.8952C245.65 55.8114 245.775 55.7668 245.904 55.7713C246.034 55.7758 246.156 55.829 246.243 55.9192C246.331 56.0094 246.378 56.1292 246.373 56.2523Z" fill="#263238"/>
<path d="M244.396 66.0423C244.393 66.134 244.361 66.2226 244.304 66.297C244.248 66.3713 244.17 66.4281 244.079 66.46C243.989 66.492 243.891 66.4978 243.797 66.4766C243.704 66.4554 243.619 66.4082 243.553 66.341C243.488 66.2738 243.444 66.1896 243.429 66.099C243.414 66.0084 243.427 65.9155 243.467 65.8321C243.507 65.7486 243.572 65.6784 243.654 65.6302C243.736 65.582 243.831 65.558 243.927 65.5613C243.991 65.5635 244.054 65.5777 244.112 65.6031C244.17 65.6284 244.223 65.6645 244.266 65.7092C244.31 65.7538 244.344 65.8063 244.366 65.8634C244.388 65.9206 244.399 65.9814 244.396 66.0423Z" fill="#263238"/>
<path d="M242.419 75.8495C242.417 75.9104 242.402 75.9704 242.376 76.0258C242.349 76.0813 242.311 76.1312 242.264 76.1727C242.217 76.2143 242.162 76.2466 242.102 76.2678C242.042 76.289 241.979 76.2988 241.915 76.2965C241.851 76.2951 241.788 76.2816 241.73 76.2568C241.672 76.2321 241.62 76.1966 241.576 76.1523C241.532 76.1081 241.498 76.0561 241.476 75.9992C241.454 75.9424 241.443 75.8819 241.446 75.8212C241.447 75.7598 241.462 75.6992 241.488 75.6431C241.514 75.587 241.552 75.5364 241.599 75.4943C241.646 75.4522 241.701 75.4194 241.761 75.3978C241.822 75.3762 241.886 75.3662 241.95 75.3685C242.079 75.3744 242.2 75.428 242.288 75.5179C242.375 75.6078 242.423 75.7268 242.419 75.8495Z" fill="#263238"/>
<path d="M238.524 86.0352C238.511 86.1487 238.455 86.2536 238.365 86.3298C238.276 86.406 238.16 86.4481 238.041 86.4481C237.921 86.4481 237.805 86.406 237.716 86.3298C237.627 86.2536 237.57 86.1487 237.557 86.0352C237.549 85.9704 237.556 85.9047 237.577 85.8426C237.598 85.7804 237.632 85.7232 237.678 85.6745C237.723 85.6259 237.779 85.587 237.842 85.5604C237.904 85.5338 237.972 85.52 238.041 85.52C238.109 85.52 238.177 85.5338 238.239 85.5604C238.302 85.587 238.358 85.6259 238.403 85.6745C238.449 85.7232 238.483 85.7804 238.504 85.8426C238.525 85.9047 238.532 85.9704 238.524 86.0352V86.0352Z" fill="#263238"/>
<path d="M238.459 95.4123C238.457 95.4735 238.443 95.5338 238.417 95.5896C238.39 95.6454 238.352 95.6957 238.305 95.7373C238.258 95.779 238.203 95.8113 238.143 95.8322C238.082 95.8532 238.018 95.8624 237.954 95.8594C237.858 95.856 237.765 95.8255 237.687 95.7717C237.609 95.7179 237.549 95.6433 237.516 95.5573C237.482 95.4713 237.476 95.3778 237.499 95.2885C237.521 95.1992 237.57 95.1182 237.641 95.0558C237.711 94.9933 237.8 94.9522 237.895 94.9376C237.99 94.923 238.087 94.9355 238.175 94.9737C238.262 95.0118 238.336 95.0739 238.387 95.152C238.437 95.23 238.462 95.3206 238.459 95.4123Z" fill="#263238"/>
<path d="M236.482 105.202C236.48 105.294 236.449 105.383 236.393 105.459C236.337 105.534 236.26 105.591 236.169 105.624C236.079 105.657 235.981 105.663 235.887 105.643C235.793 105.622 235.707 105.576 235.641 105.509C235.575 105.441 235.531 105.357 235.515 105.266C235.5 105.176 235.512 105.083 235.552 104.999C235.592 104.915 235.657 104.844 235.739 104.796C235.822 104.748 235.917 104.724 236.013 104.727C236.141 104.731 236.263 104.784 236.35 104.873C236.438 104.962 236.486 105.08 236.482 105.202V105.202Z" fill="#263238"/>
<path d="M234.504 114.992C234.5 115.116 234.444 115.233 234.35 115.317C234.255 115.402 234.129 115.448 234 115.445C233.936 115.443 233.873 115.428 233.815 115.403C233.756 115.378 233.704 115.342 233.661 115.297C233.617 115.252 233.583 115.2 233.561 115.143C233.538 115.086 233.528 115.025 233.531 114.964C233.533 114.903 233.547 114.843 233.573 114.787C233.6 114.732 233.637 114.682 233.684 114.64C233.73 114.598 233.785 114.565 233.845 114.544C233.905 114.522 233.968 114.512 234.032 114.514C234.096 114.516 234.159 114.53 234.218 114.555C234.276 114.58 234.328 114.615 234.372 114.66C234.416 114.704 234.45 114.756 234.473 114.813C234.496 114.87 234.506 114.931 234.504 114.992V114.992Z" fill="#263238"/>
<path d="M232.521 124.788C232.518 124.88 232.486 124.968 232.429 125.043C232.373 125.117 232.295 125.174 232.204 125.206C232.114 125.238 232.016 125.243 231.922 125.222C231.829 125.201 231.744 125.154 231.678 125.087C231.613 125.019 231.569 124.935 231.554 124.845C231.539 124.754 231.552 124.661 231.592 124.578C231.632 124.494 231.697 124.424 231.779 124.376C231.861 124.328 231.956 124.304 232.052 124.307C232.116 124.308 232.18 124.322 232.238 124.347C232.297 124.372 232.349 124.408 232.393 124.453C232.437 124.498 232.471 124.551 232.493 124.608C232.515 124.666 232.524 124.727 232.521 124.788V124.788Z" fill="#263238"/>
<path d="M238.038 86.2899C237.971 86.2899 237.906 86.268 237.854 86.2278C237.802 86.1876 237.766 86.1316 237.753 86.0692C237.744 86.0328 237.743 85.9951 237.749 85.9582C237.756 85.9214 237.77 85.8862 237.791 85.8546C237.812 85.8231 237.839 85.7958 237.872 85.7743C237.904 85.7529 237.94 85.7377 237.978 85.7297L239.451 85.4297C239.489 85.4215 239.529 85.4206 239.568 85.4273C239.607 85.434 239.645 85.448 239.678 85.4686C239.711 85.4891 239.739 85.5158 239.762 85.5471C239.784 85.5783 239.799 85.6134 239.807 85.6504C239.815 85.6869 239.815 85.7244 239.808 85.7609C239.8 85.7974 239.785 85.8321 239.764 85.8631C239.742 85.8941 239.715 85.9208 239.682 85.9416C239.65 85.9624 239.614 85.9769 239.575 85.9843L238.103 86.2842L238.038 86.2899Z" fill="#263238"/>
<path d="M242.96 81.0781C242.26 82.8095 241.665 84.5781 241.179 86.3749C240.734 88.3725 240.71 92.8431 240.71 92.8431" fill="#263238"/>
<path d="M240.71 93.1263C240.631 93.1234 240.557 93.0919 240.501 93.0382C240.446 92.9846 240.415 92.9128 240.413 92.8377C240.413 92.6566 240.449 88.3105 240.894 86.3186C241.377 84.5061 241.972 82.7224 242.675 80.9765C242.687 80.9393 242.707 80.9048 242.734 80.8752C242.76 80.8456 242.793 80.8215 242.829 80.8044C242.866 80.7874 242.906 80.7778 242.947 80.7761C242.988 80.7745 243.028 80.7809 243.067 80.795C243.105 80.809 243.139 80.8304 243.168 80.8578C243.197 80.8852 243.22 80.918 243.235 80.9542C243.25 80.9903 243.257 81.0291 243.256 81.068C243.255 81.1069 243.245 81.1451 243.227 81.1803C242.528 82.8984 241.933 84.6537 241.446 86.4374C241.013 88.3841 240.983 92.7981 240.977 92.8433C240.978 92.9137 240.95 92.9817 240.901 93.034C240.852 93.0864 240.783 93.1192 240.71 93.1263Z" fill="#263238"/>
<path d="M132.146 141.968C132.972 129.292 131.458 106.243 156.461 109.299C183.257 112.564 175.592 142.432 175.592 142.432L132.146 141.968Z" fill="#263238"/>
<path d="M149.402 134.351C155.429 134.351 160.315 129.694 160.315 123.95C160.315 118.206 155.429 113.549 149.402 113.549C143.374 113.549 138.488 118.206 138.488 123.95C138.488 129.694 143.374 134.351 149.402 134.351Z" fill="white"/>
<path d="M150.838 113.566C145.667 112.729 140.151 116.356 139.599 120.034L160.089 121.834C159.365 117.641 154.935 114.234 150.838 113.566Z" fill="#263238"/>
<path d="M157.755 123.69C157.607 126.412 156.051 128.545 154.282 128.455C152.512 128.364 151.194 126.095 151.313 123.362C151.432 120.629 153.017 118.506 154.787 118.597C156.556 118.688 157.898 120.974 157.755 123.69Z" fill="#263238"/>
<path d="M149.402 134.917C147.126 134.917 144.901 134.274 143.009 133.069C141.116 131.864 139.641 130.151 138.77 128.147C137.9 126.143 137.672 123.938 138.116 121.81C138.56 119.683 139.656 117.729 141.265 116.195C142.874 114.661 144.925 113.617 147.157 113.194C149.389 112.77 151.703 112.988 153.805 113.818C155.908 114.648 157.705 116.053 158.969 117.857C160.234 119.661 160.909 121.781 160.909 123.95C160.906 126.858 159.692 129.645 157.535 131.701C155.378 133.758 152.452 134.914 149.402 134.917V134.917ZM149.402 114.12C147.36 114.12 145.365 114.697 143.668 115.778C141.971 116.859 140.648 118.396 139.867 120.193C139.086 121.991 138.882 123.968 139.281 125.876C139.679 127.784 140.663 129.537 142.107 130.912C143.55 132.287 145.39 133.224 147.392 133.603C149.394 133.981 151.469 133.786 153.355 133.041C155.24 132.295 156.852 131.034 157.985 129.416C159.118 127.798 159.722 125.895 159.721 123.95C159.718 121.343 158.63 118.844 156.695 117.001C154.76 115.158 152.137 114.122 149.402 114.12V114.12Z" fill="#62A944"/>
<path opacity="0.3" d="M172.546 141.651H172.475C172.437 141.643 172.401 141.628 172.369 141.606C172.337 141.585 172.31 141.558 172.289 141.526C172.269 141.494 172.255 141.459 172.249 141.422C172.244 141.385 172.246 141.348 172.255 141.312C172.255 141.238 174.167 133.565 172.202 125.806C172.183 125.731 172.196 125.652 172.238 125.586C172.281 125.52 172.349 125.473 172.427 125.455C172.506 125.437 172.589 125.45 172.658 125.49C172.727 125.53 172.777 125.595 172.796 125.67C174.796 133.593 172.867 141.368 172.849 141.442C172.831 141.505 172.792 141.56 172.737 141.598C172.681 141.636 172.614 141.655 172.546 141.651V141.651Z" fill="white"/>
<path opacity="0.3" d="M170.889 121.551C170.832 121.55 170.776 121.534 170.728 121.505C170.68 121.476 170.641 121.435 170.616 121.387C169.878 119.832 168.932 118.375 167.801 117.052C167.752 116.994 167.729 116.92 167.737 116.846C167.745 116.771 167.783 116.703 167.843 116.656C167.873 116.632 167.908 116.613 167.946 116.602C167.984 116.591 168.023 116.588 168.063 116.591C168.102 116.595 168.14 116.606 168.175 116.624C168.209 116.642 168.24 116.666 168.265 116.695C169.423 118.057 170.395 119.553 171.156 121.149C171.173 121.182 171.183 121.218 171.185 121.255C171.187 121.292 171.181 121.329 171.168 121.364C171.154 121.399 171.134 121.431 171.108 121.458C171.081 121.485 171.049 121.507 171.014 121.522C170.975 121.54 170.932 121.549 170.889 121.551V121.551Z" fill="white"/>
<path d="M76.5001 201.432H76.2804C75.493 201.411 74.7466 201.093 74.2055 200.547C73.6643 200.002 73.3727 199.274 73.3947 198.524C73.4168 197.773 73.7507 197.062 74.323 196.546C74.8954 196.03 75.6593 195.752 76.4466 195.773H76.5001C78.216 195.773 82.3427 193.787 90.9759 180.817C91.2051 180.472 91.5097 180.179 91.8689 179.957C92.228 179.736 92.6332 179.59 93.0568 179.532C93.4803 179.473 93.9121 179.503 94.3226 179.618C94.7331 179.733 95.1126 179.932 95.4351 180.2C102.215 185.755 109.609 190.59 117.487 194.619C117.852 194.777 118.179 195.004 118.449 195.285C118.72 195.567 118.927 195.898 119.06 196.258C119.192 196.618 119.247 197.001 119.22 197.381C119.194 197.762 119.087 198.134 118.906 198.475C118.725 198.815 118.473 199.117 118.166 199.362C117.859 199.608 117.503 199.791 117.12 199.902C116.737 200.013 116.334 200.049 115.936 200.007C115.538 199.966 115.153 199.848 114.803 199.661C107.482 195.953 100.561 191.567 94.1407 186.566C86.9027 196.95 81.5352 201.432 76.5001 201.432Z" fill="#263238"/>
<path d="M94.8713 179.69H94.616C94.1494 179.626 93.7286 179.388 93.4459 179.028C93.1632 178.669 93.0416 178.217 93.1078 177.772C93.5294 174.943 93.0069 164.4 89.2602 156.194C89.0941 155.832 89.066 155.425 89.1809 155.045C89.2958 154.665 89.5465 154.335 89.8896 154.112C98.0241 148.832 115.35 148.198 116.086 148.176C116.32 148.168 116.553 148.205 116.772 148.283C116.992 148.362 117.192 148.481 117.363 148.633C117.534 148.785 117.672 148.968 117.769 149.171C117.865 149.375 117.919 149.594 117.927 149.817C117.935 150.04 117.896 150.262 117.814 150.471C117.732 150.68 117.607 150.871 117.447 151.034C117.287 151.197 117.095 151.328 116.882 151.42C116.669 151.512 116.439 151.564 116.205 151.571C116.045 151.571 100.898 152.137 93.1197 156.211C96.4329 164.383 97.1869 174.563 96.6347 178.247C96.5708 178.649 96.3576 179.016 96.034 179.281C95.7104 179.546 95.2978 179.691 94.8713 179.69Z" fill="#263238"/>
<path d="M97.8634 177.495C96.6759 174.83 91.332 175.13 88.2029 177.416C86.5285 178.632 84.2603 182.305 84.0466 183.641C83.9753 183.958 83.986 184.287 84.0777 184.6C84.1694 184.912 84.3393 185.199 84.573 185.435C84.8066 185.671 85.097 185.849 85.419 185.955C85.741 186.06 86.0851 186.089 86.4216 186.04C88.4701 185.87 91.2786 183.035 91.2786 183.035C89.4082 184.784 91.8248 186.017 95.4349 183.488C97.4062 182.079 99.1875 180.477 97.8634 177.495Z" fill="#62A944"/>
<path d="M199.99 142.715C199.962 142.721 199.934 142.721 199.907 142.715C199.869 142.705 199.833 142.688 199.803 142.665C199.772 142.642 199.746 142.613 199.727 142.581C199.708 142.548 199.697 142.512 199.693 142.475C199.689 142.437 199.693 142.4 199.705 142.364C200.494 139.738 201.355 138.137 202.49 137.271C202.312 136.663 202.345 136.015 202.585 135.426C202.861 134.739 203.35 134.147 203.986 133.729C203.813 133.551 203.69 133.334 203.629 133.098C203.568 132.863 203.57 132.616 203.635 132.382C203.85 131.673 204.295 131.047 204.906 130.594C204.686 130.359 204.565 130.054 204.568 129.739C204.568 128.041 207.839 125.484 211.55 124.997C211.629 124.986 211.709 125.006 211.772 125.052C211.836 125.097 211.878 125.165 211.889 125.24C211.9 125.315 211.879 125.391 211.831 125.452C211.783 125.512 211.712 125.552 211.633 125.563C208.106 126.021 205.15 128.455 205.161 129.739C205.16 129.931 205.237 130.115 205.375 130.254C206.174 129.738 207.073 129.378 208.019 129.197C208.965 129.015 209.939 129.015 210.885 129.196C212.708 129.53 213.45 129.898 213.367 130.424C213.201 131.414 209.324 131.624 206.723 131.329C206.257 131.289 205.804 131.164 205.387 130.961C204.827 131.341 204.411 131.883 204.2 132.506C204.149 132.671 204.149 132.847 204.201 133.011C204.252 133.176 204.353 133.323 204.49 133.434C205.595 132.868 207.145 132.665 209.193 133.095C211.883 133.661 211.984 133.972 212.049 134.159C212.07 134.225 212.072 134.295 212.054 134.362C212.036 134.428 212 134.489 211.948 134.538C211.384 135.104 207.257 134.838 205.185 134.351C204.935 134.297 204.693 134.211 204.467 134.096C203.853 134.452 203.381 134.991 203.125 135.63C202.953 136.043 202.906 136.494 202.988 136.932C203.094 136.871 203.203 136.817 203.315 136.767C204.544 136.202 206.028 136.303 207.863 137.05C209.051 137.543 209.644 137.984 209.704 138.431C209.706 138.546 209.676 138.659 209.617 138.759C209.557 138.858 209.47 138.941 209.365 138.997C208.457 139.563 205.286 139.484 203.635 138.646C203.256 138.45 202.94 138.158 202.721 137.803C201.753 138.652 200.969 140.163 200.257 142.534C200.235 142.585 200.199 142.63 200.151 142.662C200.104 142.694 200.048 142.712 199.99 142.715V142.715ZM203.208 137.435C203.373 137.728 203.625 137.968 203.932 138.126C205.274 138.805 207.911 138.958 208.896 138.578C209.098 138.499 209.128 138.437 209.128 138.437C209.128 138.437 209.098 138.12 207.643 137.526C205.981 136.847 204.675 136.751 203.588 137.232C203.457 137.292 203.33 137.36 203.208 137.435V137.435ZM205.191 133.717L205.34 133.757C207.273 134.182 209.263 134.325 211.242 134.181C210.54 133.933 209.817 133.744 209.08 133.615C207.801 133.285 206.449 133.321 205.191 133.717V133.717ZM205.939 130.537C206.213 130.631 206.499 130.691 206.788 130.718C209.757 131.052 212.364 130.662 212.726 130.305C212.625 130.22 212.227 129.977 210.755 129.711C209.098 129.396 207.377 129.691 205.939 130.537V130.537Z" fill="#263238"/>
<path d="M122.694 200.487C123.086 200.368 122.956 200.006 122.516 200.006H114.477C99.1695 198.461 88.4759 200.532 95.2151 201.019C101.954 201.506 94.7401 201.404 89.8178 203.181C84.8956 204.958 126.423 205.405 130.193 203.181C133.661 201.132 117.267 202.145 122.694 200.487Z" fill="#263238"/>
<path d="M180.254 202.745L110.309 200.532L107.405 135.896L190.003 137.656L180.254 202.745Z" fill="#62A944"/>
<path d="M132.147 201.506C132.072 201.506 132 201.48 131.945 201.431C131.89 201.383 131.856 201.317 131.85 201.246L126.245 136.326C126.24 136.252 126.265 136.178 126.316 136.121C126.367 136.064 126.44 136.028 126.518 136.021C126.596 136.017 126.672 136.042 126.732 136.091C126.792 136.139 126.83 136.207 126.839 136.281L132.473 201.2C132.477 201.238 132.472 201.275 132.46 201.311C132.448 201.346 132.429 201.379 132.403 201.407C132.378 201.436 132.347 201.459 132.312 201.476C132.277 201.493 132.239 201.503 132.2 201.506H132.147Z" fill="#263238"/>
<path d="M180.254 202.745L199.052 200.018L204.972 139.914L190.003 137.656L180.254 202.745Z" fill="#62A944"/>
<path opacity="0.2" d="M180.254 202.745L199.052 200.018L204.972 139.914L190.003 137.656L180.254 202.745Z" fill="black"/>
<path d="M116.282 188.077L114.56 149.67C114.518 148.721 114.68 147.774 115.037 146.887C115.394 146 115.938 145.193 116.635 144.515C117.332 143.836 118.168 143.301 119.091 142.943C120.014 142.585 121.004 142.411 122 142.432L174.287 143.564C175.316 143.586 176.329 143.816 177.259 144.238C178.188 144.661 179.013 145.266 179.679 146.015C180.345 146.764 180.837 147.638 181.122 148.581C181.408 149.525 181.48 150.515 181.334 151.486L175.539 190.159C175.289 191.853 174.391 193.399 173.018 194.501C171.645 195.603 169.894 196.183 168.1 196.13L123.336 194.715C121.498 194.661 119.75 193.947 118.442 192.715C117.134 191.484 116.362 189.827 116.282 188.077V188.077Z" fill="#263238"/>
<path d="M121.935 154.22L130.022 154.463L129.957 156.449L124.892 156.297L124.844 157.779L129.541 157.921L129.476 159.822L124.779 159.675L124.72 161.514L129.927 161.673L129.856 163.778L121.62 163.529L121.935 154.22Z" fill="white"/>
<path d="M131.523 163.828L131.832 154.52L136.867 154.672C137.589 154.669 138.308 154.768 138.999 154.967C139.489 155.123 139.908 155.434 140.186 155.849C140.393 156.152 140.532 156.491 140.594 156.847C140.657 157.202 140.642 157.566 140.551 157.916C140.46 158.266 140.294 158.594 140.063 158.88C139.833 159.166 139.544 159.404 139.213 159.579C138.875 159.744 138.512 159.859 138.138 159.918C138.414 160.003 138.676 160.125 138.916 160.28C139.089 160.434 139.244 160.604 139.379 160.79C139.532 160.966 139.667 161.155 139.783 161.356L141.154 164.1L137.746 163.993L136.226 161.101C136.105 160.825 135.928 160.575 135.704 160.365C135.49 160.218 135.236 160.136 134.973 160.128H134.706L134.581 163.902L131.523 163.828ZM134.742 158.385L136.012 158.424C136.282 158.409 136.55 158.373 136.814 158.317C137.013 158.288 137.193 158.189 137.319 158.039C137.447 157.889 137.52 157.702 137.526 157.507C137.538 157.378 137.518 157.248 137.47 157.127C137.422 157.005 137.346 156.896 137.247 156.806C136.916 156.602 136.525 156.505 136.131 156.528L134.801 156.489L134.742 158.385Z" fill="white"/>
<path d="M142.141 164.128L142.449 154.819L147.479 154.972C148.201 154.968 148.919 155.067 149.61 155.266C150.101 155.421 150.521 155.733 150.798 156.149C151.099 156.603 151.24 157.136 151.201 157.671C151.203 158.123 151.077 158.567 150.835 158.955C150.594 159.344 150.246 159.663 149.83 159.878C149.492 160.043 149.129 160.158 148.755 160.218C149.03 160.302 149.29 160.424 149.527 160.58C149.705 160.729 149.862 160.898 149.996 161.084C150.148 161.261 150.283 161.45 150.4 161.65L151.771 164.389L148.363 164.287L146.843 161.395C146.722 161.119 146.544 160.869 146.321 160.659C146.109 160.507 145.85 160.423 145.584 160.422H145.323L145.193 164.202L142.141 164.128ZM145.353 158.684L146.629 158.718C146.899 158.709 147.168 158.674 147.431 158.616C147.628 158.588 147.807 158.489 147.93 158.339C148.063 158.191 148.136 158.002 148.138 157.807C148.15 157.678 148.133 157.548 148.085 157.427C148.038 157.305 147.963 157.195 147.864 157.106C147.533 156.896 147.138 156.799 146.742 156.828L145.418 156.789L145.353 158.684Z" fill="white"/>
<path d="M152.258 159.805C152.212 159.156 152.318 158.504 152.567 157.898C152.817 157.292 153.204 156.747 153.702 156.3C154.199 155.854 154.794 155.518 155.443 155.317C156.093 155.116 156.781 155.054 157.459 155.137C158.143 155.115 158.824 155.225 159.463 155.459C160.101 155.693 160.684 156.047 161.176 156.5C161.615 156.982 161.947 157.545 162.151 158.153C162.355 158.761 162.428 159.402 162.364 160.037C162.368 160.962 162.14 161.874 161.699 162.697C161.298 163.37 160.7 163.917 159.977 164.27C159.125 164.658 158.182 164.83 157.239 164.768C156.3 164.776 155.371 164.582 154.52 164.202C153.796 163.828 153.205 163.257 152.822 162.561C152.373 161.709 152.178 160.756 152.258 159.805V159.805ZM155.274 159.907C155.185 160.62 155.355 161.341 155.755 161.95C155.942 162.149 156.17 162.31 156.424 162.424C156.678 162.538 156.953 162.601 157.233 162.611C157.514 162.621 157.793 162.578 158.055 162.482C158.318 162.387 158.557 162.243 158.759 162.058C159.2 161.422 159.408 160.667 159.353 159.907C159.433 159.225 159.258 158.538 158.86 157.966C158.68 157.768 158.458 157.61 158.208 157.502C157.958 157.393 157.686 157.337 157.412 157.338C157.134 157.319 156.856 157.36 156.598 157.458C156.34 157.556 156.109 157.708 155.921 157.904C155.472 158.481 155.243 159.189 155.274 159.907V159.907Z" fill="white"/>
<path d="M163.89 164.813L164.198 155.499L169.228 155.651C169.949 155.65 170.667 155.749 171.359 155.946C171.848 156.104 172.266 156.415 172.547 156.828C172.846 157.282 172.988 157.815 172.95 158.351C172.953 158.803 172.827 159.248 172.586 159.638C172.344 160.027 171.996 160.347 171.579 160.563C171.239 160.723 170.877 160.836 170.504 160.897C170.779 160.983 171.039 161.107 171.276 161.265C171.454 161.414 171.611 161.583 171.745 161.769C171.898 161.945 172.033 162.134 172.149 162.335L173.52 165.079L170.112 164.977L168.592 162.08C168.471 161.806 168.294 161.557 168.07 161.35C167.857 161.198 167.599 161.113 167.333 161.107H167.072L166.942 164.887L163.89 164.813ZM167.102 159.364L168.378 159.403C168.648 159.393 168.917 159.359 169.18 159.301C169.377 159.271 169.554 159.172 169.679 159.024C169.819 158.866 169.893 158.665 169.887 158.458C169.899 158.33 169.882 158.201 169.834 158.08C169.787 157.96 169.711 157.851 169.613 157.762C169.282 157.553 168.887 157.455 168.491 157.485L167.167 157.445L167.102 159.364Z" fill="white"/>
<path d="M168.692 180.63C168.581 180.632 168.47 180.611 168.368 180.569C168.266 180.527 168.174 180.465 168.099 180.387L163.016 175.084L157.53 179.86C157.378 179.993 157.177 180.063 156.971 180.054C156.765 180.046 156.571 179.96 156.431 179.815L151.349 174.513L145.862 179.289C145.71 179.421 145.509 179.491 145.303 179.483C145.097 179.474 144.903 179.388 144.764 179.243L139.675 173.941L134.195 178.717C134.115 178.786 134.021 178.839 133.919 178.872C133.817 178.905 133.709 178.918 133.601 178.91C133.395 178.898 133.201 178.811 133.061 178.666L127.978 173.369L122.498 178.14C122.345 178.273 122.143 178.343 121.936 178.334C121.729 178.326 121.534 178.24 121.394 178.095C121.324 178.023 121.271 177.939 121.236 177.847C121.201 177.755 121.185 177.658 121.19 177.561C121.195 177.463 121.221 177.368 121.265 177.28C121.309 177.192 121.371 177.113 121.447 177.048L127.503 171.768C127.656 171.635 127.858 171.565 128.065 171.573C128.272 171.582 128.467 171.668 128.608 171.813L133.69 177.116L139.171 172.34C139.326 172.209 139.528 172.141 139.735 172.147C139.941 172.158 140.135 172.245 140.275 172.39L145.358 177.693L150.844 172.917C150.919 172.85 151.007 172.799 151.103 172.765C151.199 172.731 151.301 172.716 151.403 172.72C151.505 172.725 151.606 172.748 151.698 172.79C151.791 172.831 151.874 172.89 151.942 172.962L157.025 178.264L162.511 173.488C162.663 173.356 162.864 173.286 163.07 173.294C163.276 173.303 163.47 173.389 163.61 173.534L169.286 179.408C169.388 179.516 169.454 179.649 169.477 179.793C169.5 179.936 169.479 180.083 169.416 180.215C169.353 180.347 169.251 180.458 169.122 180.536C168.994 180.614 168.845 180.654 168.692 180.653V180.63Z" fill="white"/>
<path d="M74.7303 204.12L71.0134 202.428L67.7002 187.053L69.4993 185.168L74.7303 204.12Z" fill="#62A944"/>
<path d="M74.731 204.12L79.6651 201.37L75.4376 188.705L69.5 185.168L74.731 204.12Z" fill="#62A944"/>
<path opacity="0.2" d="M74.731 204.12L79.6651 201.37L75.4376 188.705L69.5 185.168L74.731 204.12Z" fill="black"/>
<path d="M155.63 206.915H155.221C154.433 206.895 153.687 206.578 153.145 206.033C152.603 205.488 152.311 204.76 152.332 204.01C152.353 203.259 152.687 202.548 153.258 202.031C153.83 201.515 154.594 201.236 155.381 201.257C159.953 201.398 169.631 198.721 175.165 193.606C175.499 193.293 175.906 193.061 176.353 192.927C185.728 190.244 189.213 195.66 189.356 195.892L184.25 198.772C184.268 198.808 184.289 198.842 184.315 198.874C184.262 198.801 182.932 197.176 178.704 198.172C171.763 204.205 161.111 206.915 155.63 206.915Z" fill="#263238"/>
<path d="M155.268 210.673L144.456 210.028L143.606 191.025L158.136 191.54L155.268 210.673Z" fill="#62A944"/>
<path d="M155.269 210.673L157.798 208.274L159.366 196.429L158.136 191.54L155.269 210.673Z" fill="#62A944"/>
<path opacity="0.2" d="M155.269 210.673L157.798 208.274L159.366 196.429L158.136 191.54L155.269 210.673Z" fill="black"/>
<path d="M217.921 203.481C217.533 203.48 217.155 203.359 216.846 203.136C210.671 198.665 202.329 190.726 199.128 183.069C199.08 182.958 199.047 182.842 199.028 182.724C197.466 173.873 195.976 155.25 195.91 154.463C195.893 154.24 195.921 154.016 195.995 153.804C196.068 153.591 196.185 153.395 196.338 153.225C196.647 152.883 197.086 152.672 197.558 152.638C198.03 152.604 198.498 152.751 198.857 153.045C199.216 153.34 199.437 153.758 199.473 154.208C199.473 154.395 200.999 173.2 202.519 181.977C205.713 189.424 214.394 197.069 219.013 200.431C219.311 200.646 219.53 200.944 219.64 201.285C219.749 201.625 219.744 201.989 219.624 202.326C219.505 202.663 219.277 202.956 218.974 203.163C218.67 203.371 218.306 203.482 217.933 203.481H217.921Z" fill="#263238"/>
<path d="M226.156 204.335C224.779 204.335 223.217 203.741 221.513 202.57C221.13 202.305 220.873 201.907 220.799 201.463C220.724 201.018 220.838 200.563 221.115 200.199C221.392 199.834 221.81 199.589 222.277 199.518C222.743 199.447 223.22 199.555 223.603 199.819C225.075 200.832 225.877 200.951 226.156 200.951C226.629 200.951 227.082 201.13 227.416 201.448C227.75 201.767 227.937 202.199 227.937 202.649C227.937 203.099 227.75 203.531 227.416 203.849C227.082 204.168 226.629 204.347 226.156 204.347V204.335Z" fill="#263238"/>
<path d="M222.012 202.519C223.918 197.126 231.732 198.19 234.428 198.994C236.73 199.631 238.939 200.543 241.001 201.71C242.455 202.615 242.479 204.138 240.537 205.003C238.162 206.067 232.13 205.122 232.13 205.122C235.241 206.418 232.13 208.518 226.661 206.458C224.886 205.79 221.341 204.5 222.012 202.519Z" fill="#62A944"/>
<path d="M203.048 156.772C202.341 161.356 198.357 164.734 195.115 164.281C191.873 163.829 191.742 159.754 192.449 155.148C193.156 150.541 194.438 147.225 197.68 147.678C200.922 148.131 203.754 152.205 203.048 156.772Z" fill="#263238"/>
<path d="M124.683 138.494C124.952 138.494 125.17 138.286 125.17 138.029C125.17 137.773 124.952 137.565 124.683 137.565C124.414 137.565 124.196 137.773 124.196 138.029C124.196 138.286 124.414 138.494 124.683 138.494Z" fill="#263238"/>
<path d="M129.629 141.368C129.629 141.46 129.6 141.55 129.547 141.626C129.493 141.702 129.417 141.762 129.328 141.797C129.24 141.832 129.142 141.841 129.047 141.823C128.953 141.806 128.866 141.761 128.798 141.696C128.73 141.632 128.683 141.549 128.665 141.459C128.646 141.369 128.655 141.276 128.692 141.191C128.729 141.106 128.792 141.034 128.872 140.983C128.952 140.932 129.046 140.904 129.142 140.904C129.271 140.904 129.395 140.953 129.486 141.04C129.578 141.127 129.629 141.245 129.629 141.368Z" fill="#263238"/>
<path d="M130.176 196.203C130.176 196.295 130.147 196.385 130.094 196.461C130.04 196.537 129.964 196.597 129.875 196.632C129.786 196.667 129.688 196.676 129.594 196.658C129.5 196.641 129.413 196.596 129.345 196.531C129.277 196.467 129.23 196.384 129.212 196.294C129.193 196.204 129.202 196.111 129.239 196.026C129.276 195.941 129.338 195.868 129.419 195.817C129.499 195.766 129.593 195.739 129.689 195.739C129.818 195.739 129.942 195.788 130.033 195.875C130.125 195.962 130.176 196.08 130.176 196.203V196.203Z" fill="#263238"/>
<path d="M134.635 199.548C134.635 199.639 134.606 199.729 134.553 199.805C134.499 199.882 134.423 199.941 134.334 199.976C134.245 200.011 134.147 200.021 134.053 200.003C133.959 199.985 133.872 199.941 133.804 199.876C133.736 199.811 133.689 199.728 133.67 199.638C133.652 199.548 133.661 199.455 133.698 199.37C133.735 199.285 133.797 199.213 133.878 199.162C133.958 199.111 134.052 199.083 134.148 199.083C134.277 199.083 134.401 199.132 134.492 199.219C134.584 199.306 134.635 199.424 134.635 199.548Z" fill="#263238"/>
<path d="M49.0561 205.111C48.2013 205.073 47.3664 204.852 46.6131 204.465C45.8598 204.078 45.2073 203.535 44.7038 202.876C44.6792 202.845 44.6612 202.81 44.6511 202.773C44.641 202.736 44.6389 202.697 44.645 202.659C44.6511 202.621 44.6653 202.585 44.6866 202.553C44.7079 202.52 44.736 202.492 44.769 202.47C44.8021 202.448 44.8395 202.433 44.879 202.425C44.9185 202.417 44.9592 202.417 44.9986 202.425C45.0381 202.433 45.0754 202.448 45.1085 202.47C45.1415 202.492 45.1695 202.52 45.1907 202.553C46.3011 204.081 48.7533 204.89 49.822 204.409C49.9291 204.366 50.0245 204.3 50.1011 204.217C49.5611 203.99 49.0879 203.641 48.7234 203.198C48.3589 202.756 48.1142 202.235 48.0111 201.682C47.8745 200.963 47.7676 199.984 48.3851 199.859C49.2402 199.678 50.3564 201.642 50.7602 203.13C50.8333 203.377 50.8595 203.633 50.8374 203.889C51.1798 203.986 51.5401 204.013 51.8943 203.968C52.0539 203.956 52.2092 203.913 52.3503 203.841C52.4913 203.769 52.6151 203.669 52.7137 203.549C52.3229 203.268 51.9987 202.912 51.7624 202.503C51.526 202.094 51.3828 201.643 51.3421 201.178C51.1164 199.627 51.2886 199.361 51.4668 199.226C51.5245 199.183 51.5934 199.157 51.6657 199.15C51.7381 199.143 51.811 199.156 51.8765 199.186C52.5118 199.441 53.2777 201.636 53.4262 202.881C53.444 203.011 53.444 203.142 53.4262 203.272C53.6821 203.366 53.9535 203.415 54.2277 203.419C54.7312 203.438 55.2292 203.313 55.6587 203.062C55.5756 203.011 55.4984 202.955 55.4212 202.898C54.8274 202.395 54.5543 201.591 54.6612 200.448C54.7443 199.559 54.9521 199.073 55.3262 198.92C55.4469 198.874 55.579 198.862 55.7066 198.886C55.8341 198.91 55.9516 198.969 56.0446 199.056C56.4455 199.478 56.745 199.978 56.9224 200.521C57.0998 201.064 57.1508 201.638 57.0718 202.202C57.0203 202.437 56.9171 202.659 56.769 202.853C57.8615 203.034 59.3934 202.74 60.7175 202.429C60.7565 202.42 60.797 202.418 60.8366 202.424C60.8762 202.43 60.9141 202.443 60.9483 202.463C60.9825 202.483 61.0122 202.51 61.0358 202.54C61.0594 202.571 61.0763 202.606 61.0857 202.644C61.095 202.681 61.0966 202.719 61.0903 202.757C61.084 202.795 61.07 202.831 61.0491 202.864C61.0281 202.896 61.0007 202.924 60.9682 202.947C60.9358 202.969 60.899 202.986 60.86 202.994C59.2509 203.374 57.5172 203.685 56.294 203.345C55.697 203.778 54.9658 204.009 54.2159 204.002C53.8831 203.998 53.5535 203.938 53.2421 203.826C53.104 204.03 52.9186 204.201 52.7004 204.325C52.4822 204.45 52.2369 204.525 51.9833 204.545C51.537 204.6 51.0836 204.563 50.6533 204.437C50.5148 204.66 50.3073 204.836 50.0595 204.941C49.7411 205.064 49.3993 205.121 49.0561 205.111V205.111ZM48.5455 200.425C48.4633 200.81 48.4796 201.208 48.593 201.585C48.6767 202.038 48.8737 202.464 49.1673 202.829C49.4608 203.193 49.8423 203.485 50.2792 203.679C50.2709 203.545 50.247 203.412 50.208 203.283C49.7449 201.665 48.8542 200.55 48.5455 200.425V200.425ZM51.8527 199.933C51.8566 200.323 51.8903 200.713 51.9536 201.099C52.0191 201.789 52.3388 202.434 52.8562 202.921C52.71 201.876 52.3703 200.864 51.8527 199.933V199.933ZM55.5874 199.441C55.5874 199.441 55.3618 199.548 55.2787 200.493C55.1956 201.438 55.3678 202.089 55.8309 202.468C55.9405 202.553 56.06 202.625 56.1871 202.683C56.3433 202.524 56.4537 202.329 56.5078 202.117C56.6135 201.227 56.361 200.331 55.8012 199.61C55.6765 199.463 55.6053 199.441 55.5874 199.441V199.441Z" fill="#263238"/>
<path d="M135.959 209.389L137.568 206.73L135.959 204.07H134.237L135.211 206.73L134.237 209.389H135.959Z" fill="#263238"/>
<path d="M134.35 208.116C134.152 208.128 133.953 208.101 133.766 208.037C133.579 207.973 133.407 207.873 133.262 207.744C133.117 207.614 133.002 207.457 132.922 207.283C132.843 207.109 132.803 206.922 132.803 206.732C132.803 206.543 132.843 206.355 132.922 206.181C133.002 206.007 133.117 205.851 133.262 205.721C133.407 205.592 133.579 205.492 133.766 205.428C133.953 205.363 134.152 205.337 134.35 205.349L131.619 204.828L130.889 206.933L132.112 208.71L134.35 208.116Z" fill="#263238"/>
<path d="M134.587 204.07H131.363L129.754 206.73L131.363 209.389H134.587L136.196 206.73L134.587 204.07ZM132.978 208.116C132.69 208.117 132.408 208.037 132.168 207.885C131.928 207.733 131.741 207.517 131.63 207.264C131.519 207.011 131.489 206.732 131.545 206.463C131.6 206.193 131.738 205.946 131.941 205.751C132.145 205.557 132.404 205.424 132.686 205.37C132.968 205.316 133.261 205.343 133.527 205.448C133.794 205.553 134.021 205.731 134.181 205.959C134.341 206.187 134.427 206.455 134.427 206.73C134.427 207.096 134.274 207.448 134.003 207.708C133.731 207.968 133.363 208.114 132.978 208.116V208.116Z" fill="#62A944"/>
<path d="M248.192 203.889L246.998 201.914L248.192 199.939H249.468L248.75 201.914L249.468 203.889H248.192Z" fill="#62A944"/>
<path d="M249.385 202.944C249.533 202.954 249.682 202.936 249.822 202.889C249.963 202.842 250.091 202.768 250.2 202.672C250.309 202.575 250.396 202.458 250.455 202.328C250.515 202.199 250.545 202.058 250.545 201.917C250.545 201.775 250.515 201.635 250.455 201.505C250.396 201.375 250.309 201.258 250.2 201.162C250.091 201.066 249.963 200.992 249.822 200.945C249.682 200.898 249.533 200.879 249.385 200.89L251.415 200.505L251.956 202.067L251.053 203.385L249.385 202.944Z" fill="#62A944"/>
<path d="M249.213 199.939H251.588L252.775 201.914L251.588 203.889H249.213L248.025 201.914L249.213 199.939ZM250.4 202.944C250.614 202.945 250.824 202.886 251.002 202.773C251.181 202.661 251.32 202.5 251.403 202.312C251.486 202.124 251.508 201.917 251.467 201.717C251.426 201.516 251.323 201.332 251.173 201.188C251.022 201.043 250.829 200.944 250.619 200.904C250.41 200.864 250.192 200.884 249.994 200.962C249.796 201.04 249.627 201.172 249.508 201.341C249.389 201.511 249.326 201.71 249.326 201.914C249.325 202.049 249.352 202.184 249.406 202.309C249.46 202.434 249.54 202.548 249.64 202.644C249.741 202.74 249.86 202.816 249.992 202.867C250.123 202.918 250.264 202.945 250.406 202.944H250.4Z" fill="#263238"/>
<path d="M203.724 206.514H206.408C206.744 206.513 207.065 206.385 207.302 206.158C207.539 205.931 207.672 205.624 207.672 205.303V205.303C207.672 204.983 207.539 204.676 207.302 204.449C207.065 204.222 206.744 204.094 206.408 204.092H203.724C203.387 204.092 203.064 204.22 202.825 204.447C202.587 204.674 202.453 204.982 202.453 205.303V205.303C202.453 205.624 202.587 205.933 202.825 206.16C203.064 206.387 203.387 206.514 203.724 206.514V206.514Z" fill="#263238"/>
<path d="M199.408 204.228C199.657 203.797 200.033 203.444 200.49 203.213C200.947 202.983 201.464 202.885 201.979 202.932C202.494 202.978 202.983 203.168 203.386 203.476C203.789 203.784 204.088 204.198 204.248 204.667C204.407 205.136 204.418 205.639 204.281 206.114C204.144 206.589 203.864 207.015 203.476 207.34C203.088 207.666 202.608 207.875 202.096 207.944C201.584 208.012 201.062 207.936 200.595 207.726C199.953 207.41 199.468 206.865 199.245 206.21C199.023 205.555 199.081 204.843 199.408 204.228Z" fill="#62A944"/>
<path d="M200.132 207.725L200.868 208.055L203.425 202.885L202.69 202.555L200.132 207.725Z" fill="#263238"/>
</svg>
